<svg width="1320" height="1838" viewBox="0 0 1320 1838" fill="none" xmlns="http://www.w3.org/2000/svg"><defs>
<linearGradient id="waterFlow" x1="0" y1="0" x2="400" y2="0" gradientUnits="userSpaceOnUse" spreadMethod="repeat">
  <stop offset="0" stop-color="#3D7A72"/>
  <stop offset="0.35" stop-color="#5CA39A"/>
  <stop offset="0.5" stop-color="#8DD4C8"/>
  <stop offset="0.65" stop-color="#5CA39A"/>
  <stop offset="1" stop-color="#3D7A72"/>
  <animateTransform attributeName="gradientTransform" type="translate" from="0 0" to="400 0" dur="4s" repeatCount="indefinite"/>
</linearGradient>
</defs>
<g clip-path="url(#clip0_9590_4086)">
<path fill="url(#waterFlow)" fill-rule="evenodd" clip-rule="evenodd" d="M843.903 -184.342C851.24 -187.036 847.531 -151.125 855.636 -112.075C857.883 -101.249 860.629 -61.264 855.636 -20.6485C855.636 9.69701 860.135 93.5063 855.892 97.9042C849.191 112.595 850.914 135.975 867.794 143.305C877.017 146.878 887.678 144.943 896.761 143.124C911.441 142.39 937.408 143.358 952.438 142.986C969.734 143.964 985.449 136.359 1002.92 137.04C1027.21 142.038 1032.47 132.304 1030.15 116.796C1022.57 77.4032 1031.89 43.9554 1043.62 18.6845C1052.54 -8.0721 1054.02 -2.12744 1054.02 -37.0596C1049.9 -74.2227 1032.88 -123.279 1043.62 -138.888C1047.99 -139.751 1042.96 -152.266 1057.08 -138.888C1063.77 -128.411 1065.92 -107.671 1068.89 -93.5489C1073.11 -73.4812 1068.89 -68.9604 1068.89 -20.6485C1068.89 -1.32347 1062.2 30.5781 1049.56 64.0244C1038.42 87.8091 1051.69 144.465 1072.36 169.378C1093.03 194.291 1115.76 217.631 1142.97 235.619C1161.58 249.842 1169.02 273.809 1165.45 296.604C1164.81 318.421 1167.46 339.326 1165.99 360.749C1167.44 374.587 1184.99 379.811 1194.14 380.247C1204.75 377.887 1218.53 383.119 1228.94 380.247C1260.19 379.534 1307.89 378.845 1325.32 379.322C1330.52 380.48 1332.1 374.718 1332.01 379.322C1335.04 402.583 1344.93 413.497 1332.01 414.847C1306.18 412.251 1233.25 390.439 1205.27 394.289C1197.1 397.373 1162.76 393.887 1163.33 403.927C1162.92 416.48 1163.72 447.159 1163.21 462.924C1158.95 480.017 1163.69 498.475 1167.96 514.952C1174.1 538.056 1163.24 561.195 1167.58 584.246C1167.18 601.841 1167.98 635.391 1167.47 653.337C1157.89 672.941 1154.41 695.335 1144.43 714.695C1142.27 756.341 1147.32 803.042 1146.3 845.868C1143.97 864.632 1141.56 884.845 1149.72 902.577C1151.22 917.639 1153.15 931.523 1150.55 946.191C1150.55 956.903 1150.11 972.456 1151.06 983.029C1152.94 990.581 1154.95 998.519 1155.9 1006.41C1160.03 1024.7 1154.9 1042.32 1152.71 1060.08C1152.66 1069.68 1152.57 1083.48 1152.81 1092.61C1160.81 1113.87 1155.49 1144.84 1156.94 1166.23C1157.56 1173.25 1154.26 1178.2 1155.09 1185.33C1155.99 1193.94 1159.24 1200.5 1159.18 1209.11C1161.83 1223.57 1161.2 1237.65 1159.06 1252.57C1158.75 1262.11 1158.94 1272.84 1161.1 1281.71C1161.61 1294.82 1160.92 1314.92 1161.18 1326.85C1161.69 1335.93 1155.78 1340.39 1155.22 1349.74C1154.97 1360.72 1147.19 1381.15 1157.54 1386.88C1177.52 1388.24 1198.08 1400.64 1199.57 1422.65C1198.76 1442.02 1220.34 1440.59 1233.66 1442.95C1248.07 1446.01 1263.59 1446.33 1277.89 1449.51C1287.28 1451.29 1295.34 1456.15 1305.11 1457.05C1313.48 1461.21 1329.15 1456.61 1327.12 1470.16C1327.06 1475.04 1327.3 1481.32 1326.82 1484.67C1326.48 1487.18 1325.72 1487.96 1324.11 1487.78C1306.86 1479.42 1290.15 1468.88 1271.62 1463.21C1265.04 1460.64 1257.74 1460.78 1250.92 1459.14C1246.5 1457.98 1243.15 1455.39 1238.38 1455.98C1228.83 1455.99 1210.29 1455.94 1201.7 1456C1186.32 1455.07 1189.26 1479.75 1174.95 1482.71C1167.03 1485.11 1159.88 1479.16 1152.04 1479.77C1143.11 1481.31 1147.31 1492.89 1147.67 1499.01C1149.18 1507.85 1145.7 1514.12 1146.28 1523.45C1147.12 1534.37 1144.62 1545.06 1144.89 1555.77C1145.65 1568.51 1151.36 1579.89 1152.5 1592.47C1146.28 1632.02 1155.69 1623.05 1156.77 1652.67C1156.77 1672.36 1159.26 1652.6 1159.92 1690.06C1154.55 1710.21 1160.98 1735.14 1161.29 1771.68C1159.92 1836.5 1161.63 1880.53 1161.29 1891.5C1159.17 1915.64 1140.5 1925.5 1138.01 1895.5C1142.5 1843.5 1134 1854.5 1138.01 1813.68C1130.05 1761.21 1131.82 1719.11 1135.53 1696.24C1140.07 1668.28 1132.48 1678.18 1117.13 1664.87C1106.47 1655.63 1090.97 1659.29 1077.95 1658.32C1067.88 1656.26 1060.68 1657.81 1051.09 1660.23C1036.88 1661.21 1023.15 1660.91 1009.74 1656.44C999.192 1656.58 980.415 1656.11 968.597 1656.34C957.503 1657.53 946.332 1659.13 935.281 1658.41C927.357 1657.82 920.918 1655.72 912.569 1656.33C866.946 1657.83 802.009 1655.77 756.485 1656.17C756.965 1658.87 756.931 1661.8 755.936 1664.79C754.846 1668.06 752.213 1672.33 749.757 1676.22C747.042 1680.51 743.993 1685.14 741.047 1690.06C738.115 1694.96 735.531 1699.76 733.841 1704.07C732.073 1708.58 731.699 1711.54 731.993 1713.19C732.419 1715.57 733.494 1717.94 735.286 1720.8C736.184 1722.24 737.203 1723.7 738.362 1725.34C739.489 1726.94 740.767 1728.73 742.011 1730.6C747.179 1738.37 756.918 1737.21 756.485 1751.96C756.251 1759.89 748.191 1780.42 743.916 1789.63C739.528 1799.07 733.773 1809.2 728.042 1818.67C722.313 1828.13 716.636 1834.04 712.121 1841.18C709.841 1844.78 707.751 1851.01 706.299 1853.5C704.743 1856.16 705.43 1861.25 703.997 1863.12C702.565 1864.99 698.755 1861.26 698.742 1861.25C698.742 1861.25 696.511 1860.5 695.025 1856.04C693.538 1851.58 695.022 1846.7 696.511 1844.15C698.106 1841.42 698.685 1831.42 700.971 1827.8C705.589 1820.5 714.372 1817.79 720 1808.49C725.628 1799.19 726.382 1792.09 730.432 1783.37C734.593 1774.41 740.797 1764.83 740.935 1760.13C741.244 1749.61 733.866 1745.19 729.637 1738.84C728.533 1737.18 727.408 1735.61 726.212 1733.91C725.048 1732.26 723.821 1730.5 722.686 1728.69C720.41 1725.05 718.26 1720.83 717.36 1715.8C716.327 1710.03 717.943 1703.89 720 1698.64C722.137 1693.19 725.213 1687.57 728.292 1682.43C731.358 1677.31 734.674 1672.26 737.191 1668.28C739.967 1663.88 741.436 1661.28 741.833 1660.09C741.98 1659.65 742.033 1658.4 740.935 1656.18C731.343 1655.58 716.378 1653.09 703.997 1647.81C677.212 1646.57 642.299 1650.17 616.45 1646.02C601.59 1649.44 584.897 1652.37 569.984 1647.93C547.518 1640.99 518.253 1644.12 495.957 1643.54C485.937 1644.2 474.639 1644.15 467.161 1651.63C459.342 1662.17 449.608 1672.58 448.991 1686.53C447.663 1713.47 485.5 1702.1 505.5 1703.5C515.509 1701.01 526.572 1703.56 535.378 1706C558.259 1714.21 570.249 1732.62 582.982 1751.96C587.322 1758.59 592.919 1764.69 596.578 1771.68C596.791 1772.14 626.38 1831.06 640.5 1864.5C658.185 1906.38 647 1916 634.056 1894.85C628.603 1880.66 622.956 1868.49 617.607 1857.99C615.82 1854.49 614.581 1844.85 610.5 1837.5C601.765 1821.76 595.603 1812.06 593 1804C582.56 1771.68 574.323 1770.28 566.675 1760.13C555.485 1745.05 542.36 1731.28 525.5 1722.4C509.8 1717.32 493.253 1722.54 477.33 1722.4C444.311 1723.67 410.514 1719.61 377.613 1720.27C356.433 1719.82 333.054 1725.23 321.03 1721.53C318.209 1721.11 315.408 1720.55 312.637 1719.82C295.161 1716.57 287.275 1698.28 271.065 1692.3C256.322 1684.39 234.654 1684.42 228.089 1666.44C219.494 1648.91 198.803 1637.65 187.729 1621.62C181.06 1616.03 172.753 1610.82 169.593 1602.45C166.052 1591.34 169.613 1577.62 166.848 1566.1C164.455 1547.78 166.284 1527.51 167.571 1508.74C167.103 1475.04 171.101 1470.29 134.99 1470.26C119.013 1471.17 104.596 1479.83 88.3003 1479.99C56.7607 1484.42 21.1339 1480.46 -4.50244 1460.31C-8.26763 1458.29 -11.3832 1457.24 -11.0757 1451.97C-11.1289 1443.52 -11.0759 1424.65 -11.0972 1413.41C-13.2242 1387.81 11.7944 1422.11 18.3052 1427.32C28.9411 1438.53 29.816 1457.56 46.8667 1462.7C60.0249 1466.48 77.9072 1473.51 90.0972 1464C94.405 1460.42 98.8756 1456.91 104.385 1455.46C118.628 1451.94 139.191 1460.92 152.434 1453.07C160.156 1442.47 154.212 1428.52 153.287 1416.8C152.213 1408.72 153.562 1399.36 150.637 1391.58C150.148 1354.15 151.297 1293.79 150.254 1254.62C146.106 1243.14 149.795 1229.44 150.593 1218.04C152.061 1187.36 147.628 1139.12 152.68 1106.85C153.116 1095.78 152.222 1072.11 152.935 1061C155.275 1053.5 154.914 1047.14 154.85 1038.52C154.467 1026.88 155.594 1012.34 154.339 1001.39C150.851 990.008 150.137 977.124 152.711 965.231C153.647 936.734 149.477 900.236 150.562 871.313C145.509 857.453 136.467 844.547 133.967 829.294C133.159 789.467 134.924 740.438 131.446 703.664C130.148 647.796 133.414 603.977 133.574 557.236C133.925 547.196 132.756 536.77 134.277 527.112C138.808 515.922 137.829 503.452 137.829 491.272C135.67 478.221 145.878 460.733 130.957 453.499C82.9398 451.212 80.724 474.921 33.8032 431.436C16.3369 408.46 6.52835 380.534 -10.4165 357.43C-11.0548 349.26 -12.6716 336.878 -9.4917 330.602C2.18708 337.548 10.4536 352.09 15.7935 364.557C25.2819 383.938 34.0064 403.779 47.7817 420.767C59.9714 436.243 65.3982 441.807 85.6187 442.318C93.9149 443.115 101.896 439.648 109.916 437.776C117.756 435.725 132.799 439.808 139 433.479C141.796 428.843 135.596 424.936 133.095 421.458C127.554 414.863 124.946 406.384 121.298 398.693C113.459 380.025 108.875 359.492 106.641 339.431C103.365 326.134 97.4386 313.177 96.7573 299.37C96.2254 286.904 93.7546 273.512 77.9497 272.978C63.4927 273.244 16.7723 272.766 -4.81201 272.978C-8.17174 272.936 -9.90695 273.317 -10.5562 270.926C-11.7473 266.979 -10.98 261.213 -7.38525 259.245C-3.71624 257.885 0.614163 259.659 4.50635 259.787C23.7703 257.713 42.2626 260.574 61.7925 260.191C71.5351 258.799 80.5461 263.275 89.3423 260.755C90.3757 258.342 90.9321 255.672 91.2036 252.846C84.8213 253.306 78.8563 253.489 73.5093 253.428C67.4415 253.358 62.1158 252.974 57.8511 252.31C53.7334 251.668 50.1485 250.702 47.9448 249.187C44.0802 246.53 33.557 240.004 20.5903 234.467C7.55464 228.9 -7.54982 224.508 -20.73 225.695L-21.269 219.719C-6.59289 218.397 9.62497 223.26 22.9468 228.949C36.3371 234.668 47.2075 241.4 51.3433 244.243C52.3396 244.928 54.7301 245.751 58.7749 246.381C62.6726 246.988 67.6967 247.361 73.5786 247.429C78.9323 247.49 84.952 247.295 91.4165 246.811C91.294 236.487 89.2947 225.107 93.0776 216.727C103.077 196.623 124.734 186.6 137.924 169.538C171.642 118.683 66.1361 135.921 41.9839 125.232C33.1022 121.946 20.7609 120.68 11.145 119.595C0.47562 119.308 -17.0742 123.347 -9.61865 104.477L-9.53369 104.371L-9.4917 104.403C7.51711 96.8525 23.9228 110.126 41.2827 111.03C57.1422 113.19 72.4091 115.563 88.5239 117.254C101.299 117.626 114.289 116.648 126.33 120.785C149.825 126.301 148.406 138.759 161.842 138.132C160.4 131.994 157.364 126.59 152.307 122.492C138.336 111.169 126.11 108.912 115.378 108.833C109.846 108.792 104.902 109.319 99.8716 109.569C94.9996 109.812 90.1424 109.781 85.606 108.363C81.7377 107.154 73.5798 105.251 63.1304 102.778C52.7628 100.325 40.2982 97.3469 28.0278 94.0204C15.7734 90.6983 3.62504 87.0065 -6.09229 83.1132C-10.9477 81.1679 -15.2755 79.1404 -18.7349 77.0439C-22.1179 74.9936 -25.0059 72.68 -26.5786 70.0312L-21.4204 66.9687C-20.6181 68.3199 -18.7716 70.0063 -15.6255 71.913C-12.5557 73.7735 -8.55897 75.6602 -3.85986 77.5429C5.5321 81.3058 17.4152 84.9266 29.5981 88.2294C41.7651 91.5279 54.1446 94.4874 64.5112 96.9404C74.7959 99.374 83.2633 101.346 87.395 102.637C90.8584 103.719 94.8138 103.813 99.5728 103.576C104.173 103.347 109.68 102.791 115.422 102.833C127.239 102.92 140.861 105.492 156.084 117.83C162.531 123.054 166.17 129.805 167.8 137.208C173.636 135.805 181.595 132.738 193.06 127.307C204.685 116.66 206.877 112.018 197.571 98.3613C192.273 88.3637 187.664 78.1417 182.306 68.33C170.879 53.7401 159.085 36.0061 146.681 14.3505C138.903 -8.66104 134.363 -34.6128 166.522 14.3505C185.273 42.8978 180.016 56.7998 196.293 72.2001C205.212 88.5513 209.673 87.8102 212.878 101.028C220.222 115.592 214.877 126.46 206.156 141.763C196.657 149.144 186.027 154.154 173.689 153.644C171.839 153.453 170.118 153.475 168.51 153.683C167.843 160.012 166.245 166.361 164.121 172.279C160.735 181.713 155.891 190.486 150.815 197.107C148.278 200.417 145.635 203.252 143.032 205.37C140.477 207.448 137.72 209.033 134.963 209.464C127.494 210.631 122.399 213.703 119.824 217.642C117.317 221.475 116.806 226.733 119.738 233.273C120.704 235.43 121.641 239.115 122.559 243.633C123.496 248.246 124.468 254.011 125.444 260.516C127.397 273.53 129.386 289.619 131.169 305.605C134.725 337.478 137.5 369.294 137.5 375.5C137.5 379.285 139.662 383.622 142.872 387.763C144.898 390.376 147.196 392.724 149.239 394.562C148.827 389.308 148.489 383.926 148.924 379.833C149.116 370.196 152.179 359.919 151.105 350.059C146.031 331.018 143.797 310.231 144.276 290.403C148.499 258.417 143.373 240.106 174.721 220.161C217.907 205.522 229.378 152.176 270.768 135.635C271.779 135.049 272.73 134.374 273.658 133.681C281.375 129.082 304.811 126.437 330.363 129.84C335.576 130.534 340.725 131.421 345.762 132.518C379.897 139.634 413.42 125.52 447.704 128.317C479.892 136.135 512.361 131.264 544.708 128.083C561.568 128.849 579.218 126.466 594.556 129.849C611.767 127.817 630.492 127.923 648.447 128.061C660.902 128.53 671.521 132.114 683.891 132.752C700.485 133.613 715.646 132.796 732.091 134.444C742.377 134.742 754.08 134.796 763.844 132.36C779.099 131.914 810.661 132.594 823.638 132.307C834.144 132.91 830.319 117.435 831.924 110.531C832.169 100.331 838.253 92.9558 839.583 83.287C840.689 74.0652 839.139 63.1399 839 54.4072C839.21 53.1897 838.987 -15.5258 839.583 -75.7393C838.475 -107.496 838.998 -134.381 830.805 -160.598C831.488 -167.667 842.126 -184.638 843.903 -184.342ZM306.797 458.147C280.289 454.424 248.545 457.36 220.165 456.445C217.126 455.894 212.911 457.022 209.889 456.341C209.102 456.245 202.73 456.937 198.302 456.445C193.565 455.919 187.469 457.444 187.343 457.476L186.534 457.792C175.845 460.135 162.248 469.711 160.892 479.486C158.435 486.73 159.243 495.082 158.424 502.751C156.839 511.228 152.424 518.506 150.733 526.919C149.446 535.067 150.934 546.249 150.381 560.513C150.084 571.639 151.02 583.96 149.946 593.948C149.413 597.213 146.552 599.917 145.583 603.245L145.574 603.267C142.575 611.563 147.541 616.882 148.233 624.881C148.127 637.975 148.286 653.498 148.265 666.315C155.775 698.133 151.381 777.107 152.636 825.721C160.986 838.815 167.71 852.921 170.592 868.462C172.815 887.705 171.221 921.544 171.657 944.596C175.358 981.391 173.274 1032.47 173.859 1071.71C178.996 1089.81 174.593 1109.91 172.061 1128.09C170.998 1135.32 172.029 1144.96 171.604 1152.1C171.061 1159.21 169.668 1162.01 169.572 1168.71C169.423 1181.42 173.614 1193.36 174.837 1205.99C174.678 1217.47 172.943 1228.47 169.955 1239.3C168.87 1247.47 169.892 1255.99 171.636 1263.75C171.232 1293.47 172.828 1324.05 169.807 1352.51C172.2 1362.76 175.145 1369.28 171.806 1380.12C171.902 1393.17 170.806 1412.49 172.295 1424.01C176.103 1432.55 176.455 1441.72 177.04 1450.95C178.933 1461.07 181.369 1470.81 182.54 1480.98C185.188 1494.13 184.348 1510.35 184.455 1523.1C185.072 1532.92 182.274 1545.14 184.678 1554.63C184.976 1560.66 184.782 1567.96 184.718 1574.11C183.016 1583.26 183.071 1590.58 187.964 1598.47C190.635 1603.8 196.284 1606.87 200.198 1611.08C206.835 1619.51 220.773 1624.71 227.368 1633.17C242.025 1653.71 247.068 1665.59 273.991 1672.37C297.86 1682.44 317.915 1717.26 346.497 1698.96C353.058 1695.83 353.657 1688.85 356.432 1683.1C359.622 1675.97 353.322 1673.31 354.45 1665.23C353.62 1657.47 347.983 1650.91 345.072 1645.94L330.822 1627.73L330.846 1627.72C330.24 1627.05 329.64 1626.3 329.062 1625.48C318.031 1614.82 312.701 1599.32 309.754 1584.77C309.51 1545.45 310.116 1458.77 309.584 1439.94C309.041 1437.5 304.361 1434.15 299.533 1433.79C292.99 1433.65 274.351 1434.32 267.966 1434.7C262.287 1434.41 253.38 1431.75 252.093 1436.63C249.275 1447.34 253.718 1464.23 249.438 1467.48C244.363 1465.98 246.396 1447.7 245.258 1437.34C244.322 1430.42 243.346 1426.44 255.493 1427.37C274.076 1427.28 294.225 1427.93 309.745 1426.32C308.309 1342.64 312.669 1111.58 308.074 1088.03C307.35 1055.6 306.554 1008.77 309.575 974.796C311.276 962.287 306.021 950.361 309.052 937.979C311.115 928.875 307.841 920.5 307.638 911.406C307.011 904.258 309.393 897.118 308.755 890.641C305.862 873.132 308.478 844.816 307.627 828.381C307.425 823.871 308.456 821.198 308.924 817.443C305.467 794.827 309.744 735.938 306.777 704.323C300.076 702.239 291.553 705.61 284.639 704.898C273.203 704.622 250.571 704.872 249.621 703.615C248.692 702.357 248.684 700.388 249.089 699.886C249.498 699.385 252.376 699.042 252.917 698.792C253.459 698.541 255.241 697.814 258.8 697.898C268.726 698.143 290.64 697.208 301.542 698.335C304.585 699.015 309.117 699.14 309.437 694.951C309.873 675.463 308.563 643.817 310.148 629.796C310.582 622.108 294.875 625.583 290.213 624.585C286.981 624.51 285.243 623.159 282.394 622.68C272.384 622.392 247.057 622.68 233.728 622.584C229.431 622.882 225.985 621.427 224.591 626.042C223.815 629.222 222.909 632.765 222.93 635.987L222.92 635.977C223.209 650.529 233.462 662.307 237.759 675.741C239.142 681.623 240.131 687.825 241.535 693.77C241.955 696.453 243.552 697.488 244.076 699.886C244.592 702.259 243.37 707.201 243.344 707.305C243.344 707.305 235.902 710.986 233.675 744.034C226.08 754.363 199.626 762.19 199.018 742.874C196.566 726.641 192.687 711.584 199.018 690.699C199.018 674.56 196.992 665.485 196.566 660.507C197.151 644.668 197.645 635.242 200.613 617.105C201.974 609.362 200.316 601.51 199.114 593.958C198.625 588.459 199.145 581.255 198.932 575.416C197.804 564.194 195.081 553.139 197.942 541.853H197.954C202.015 535.45 200.314 526.195 201.877 518.824C203.336 509.581 215.622 506.965 218.569 516.538C220.494 519.333 223.112 517.867 226.866 518.218H306.106C311.283 518.981 309.372 512.463 309.754 508.453C310.743 498.699 308.001 489.635 309.085 480.307C309.277 473.52 311.933 462.648 306.797 458.147ZM1120.37 1402.73C1117.93 1400.29 1102.53 1398.07 1094.69 1399.11C1086.86 1400.16 1072.94 1401.46 1064.49 1399.73C1055.94 1400.11 1048.1 1392.75 1049.27 1428.36C1050.89 1443.7 1056.65 1457.79 1058.29 1472.97C1058.6 1485.04 1055.96 1498.11 1059.72 1509.83C1062.07 1529.67 1075.55 1551.67 1063.08 1570.34C1061.13 1572.94 1058.86 1575.17 1055.52 1574.93C1042.37 1574.95 992.918 1574.91 980.511 1574.95C977.864 1574.92 976.659 1576.32 974.204 1576.82C954.77 1577.31 932.216 1577.03 912.345 1576.99C908.114 1576.68 908.673 1575.18 906.389 1574.95C749.549 1575.72 576.727 1578.14 414.866 1576.93C406.516 1572.95 396.058 1572.26 386.953 1570.34C373.752 1568.9 362.4 1558.76 348.71 1561.4C340.232 1563.96 324.01 1557.78 324.679 1571.63C325.678 1581.74 321.829 1594.78 327.966 1603.53C332.731 1609.41 335.276 1616.75 340.871 1622.04C341.001 1622.18 343.206 1623.64 343.315 1623.77L357.079 1638.28C361.407 1640.53 365.733 1644.2 368.376 1649.03C375.141 1661.38 380.859 1658.58 386.953 1665.23C398.801 1667.29 403.985 1675.24 416.25 1673.59C432.48 1672.87 439.587 1661.73 446.661 1649.03C457.043 1635.3 473.065 1625.82 490.637 1625.34C498.646 1625.45 504.797 1629.7 512.848 1629.26C519.559 1629.38 526.295 1627.11 532.804 1627.84C564.886 1630.36 602.631 1628.84 636.745 1629.38C653.563 1634.04 681.149 1630.31 700.104 1631.45C720.729 1634.94 741.219 1637.37 762.621 1634.97C769.672 1632.47 776.972 1635.58 784.183 1635.68C794.043 1634.86 804.64 1636.73 814.564 1636.64C823.169 1635.41 832.297 1632.07 841.147 1635.03C845.751 1636.65 848.383 1638.18 853.71 1637.83C867.019 1637.42 892.71 1638.23 906.591 1637.72C916.962 1634.32 927.483 1636.17 937.96 1637.81C946.418 1637.65 962.907 1637.99 972.225 1637.81C982.627 1636.57 991.576 1634.27 1002.08 1636.71C1013.85 1638.78 1025.41 1640.36 1037.33 1641.83C1057.31 1639.86 1076.46 1635.2 1096.82 1635.99C1106.67 1637.53 1118.82 1640.1 1127.57 1635.61C1130.17 1629.08 1131.51 1620.65 1132.48 1613.84C1131.49 1605.32 1131.66 1593.31 1131.62 1585.08C1129.94 1568.49 1125.64 1551.66 1125.29 1535C1125.97 1511.83 1123.33 1478.91 1126.84 1458.52C1128.03 1453.77 1126.98 1446.29 1127.63 1441.31C1128.9 1434.08 1129.96 1427.03 1129.55 1419.44C1130.03 1406.46 1128.8 1408.73 1120.74 1402.92C1120.61 1402.9 1120.48 1402.84 1120.37 1402.73ZM604.971 1256.06C590.439 1256.37 505.639 1254.85 475.916 1256.75C473.045 1260.34 474.839 1265.66 475.626 1269.8C476.041 1279.6 475.787 1295.93 475.755 1307.24C475.16 1311.59 473.959 1312.35 475.49 1316.35C475.501 1316.78 474.985 1318.81 475.841 1319.62C476.736 1320.43 514.346 1320.65 514.562 1320.65C516.324 1320.65 518.111 1321.06 518.112 1322.82C518.109 1324.58 515.239 1324.64 513.477 1324.64C513.312 1324.64 477.291 1325.31 475.927 1326.01C474.598 1326.7 475.558 1384.82 475.808 1403.64C476.212 1409.16 474.477 1412.41 469.766 1416.18C466.373 1418.14 462.065 1419.43 460.596 1423.46C459.554 1427.53 458.288 1431.9 456.384 1435.48C455.045 1437.98 454.48 1439.56 454.374 1443.31C454.639 1452.93 451.831 1456.48 453 1466.72C453.287 1469.55 452.554 1479.97 453 1483.09C453.607 1486.25 455.789 1491.62 456.927 1494.47C459.991 1506.81 464.118 1503.73 474.436 1502.24C483.872 1502.24 490.202 1502.28 497.988 1504.38C502.349 1506.28 508.41 1508.8 512.419 1506.24C518.841 1504.38 523.856 1505.14 532 1506.24C534.958 1507.49 540.872 1504.46 542 1507.33C541.838 1511.88 530.744 1509.24 527.369 1509.94C519.041 1511.12 509.966 1513.63 502.042 1510.36C499.756 1509.59 497.254 1508.35 494.925 1508.59C488.724 1509.93 481.732 1509.66 475.446 1509.97C469.65 1510.75 464.542 1512.09 459.416 1508.81C452.896 1506.53 449.735 1504.73 447.714 1498.46C445.183 1491.59 450.54 1480.65 438.906 1483.09H413.59C412.516 1481.38 411.93 1479.32 414.716 1478.71C422.779 1477.55 433.503 1479.07 441.066 1477.99C444.988 1476.5 443.056 1470.47 443.832 1466.72C444.204 1462.63 445.161 1460.04 445.565 1455.72C445.756 1448.6 447.247 1441.92 448.385 1434.84C448.726 1430.76 451.149 1428.35 451.118 1424.61C449.628 1418.46 443.289 1418.55 437.333 1418.47H421.567C415.025 1419.09 402.111 1416.33 399.249 1422.37C397.92 1426.32 398.824 1429.63 398.569 1434.82C398.75 1443.14 398.164 1453.03 398.855 1460.81C399.717 1464.86 400.951 1467.98 400.484 1472.87C400.218 1475.79 399.547 1478.75 399.165 1481.36C398.601 1484.5 399.675 1488.32 399.771 1491.58C399.877 1494.76 398.867 1497.51 398.675 1500.93C398.399 1504.86 398.717 1511.36 398.452 1515.38C398.982 1522.01 392.58 1524.45 387.167 1523.75C384.38 1523.46 381.61 1523.08 377.92 1523.22C370.113 1523.05 360.634 1523.65 353.231 1522.81C348.945 1522.15 345.443 1523.12 340.88 1523.07C335.435 1522.72 330.21 1521.84 325.19 1523.75C322.628 1524.83 323.445 1526.94 322.946 1529.77C322.18 1532.64 321.775 1535.56 322.391 1538.53C322.805 1541.93 321.607 1544.33 321.351 1547.08L321.403 1547.09C320.851 1550.48 325.265 1552.6 328.211 1551.4C330.806 1550.21 333.148 1547.66 336.136 1548.91C338.762 1549.79 340.478 1551.91 343.338 1552.33C349.965 1553.94 359.604 1552.49 366.092 1553.61C375.835 1555.28 383.815 1561.62 393.867 1561.67C398.301 1561.88 401.889 1562.26 404.941 1563.35C409.801 1565 414.452 1567.21 419.621 1566.48C423.013 1566.11 426.866 1565.98 430.428 1565.88C434.065 1565.61 438.63 1565.56 438.982 1561.45C439.822 1554.28 439.193 1544.17 439.363 1536.64C439.341 1534.9 439.214 1533.23 438.906 1531.61C438.363 1529.03 436.929 1524.46 439.363 1522.96C440.596 1522.21 441.651 1523.53 442.417 1524.45C446.372 1529.63 445.766 1536.23 445.798 1542.8V1562.59C445.958 1565.12 445.546 1565.83 446.737 1565.97C463.64 1565.97 662.726 1565.98 732.144 1565.97C734.282 1565.17 737.632 1563.55 737.559 1560.68C737.772 1546.63 736.899 1493.13 738.058 1478.57C738.76 1471.59 739.12 1462.56 729.059 1464.71C717.06 1466.64 693.125 1464.95 677.732 1465.5C674.297 1465.41 671.647 1465.85 668.68 1464.55C665.266 1463.01 662.128 1460.6 662.489 1456.53C662.372 1445.72 662.552 1425.54 662.457 1414.77C662.361 1411.23 661.521 1410.46 660.925 1407.12C660.266 1403.81 660.424 1400.02 659.35 1396.83C657.499 1391.79 651.563 1395.33 647.872 1393.31C634.736 1385.15 632.214 1377.77 627.225 1363.78C624.811 1359.22 624.139 1353.99 623.256 1348.99C622.426 1344.79 619.077 1342.74 618.119 1338.41C616.949 1332.86 616.288 1327.41 614.162 1322.1C612.8 1313.48 611.215 1304.54 609.163 1296.26C607.451 1289.09 611.828 1258.07 604.971 1256.06ZM1010.83 1501.55C1009.14 1498.56 1002.87 1502.22 999.49 1501.7C986.203 1501.61 924.554 1501.7 912.623 1501.68C910.241 1501.4 910.302 1503.83 910.217 1505.7C910.185 1508.29 909.325 1514.9 910.217 1516.92C912.303 1521.29 921.037 1517.2 924.547 1520.06C926.821 1521.82 926.917 1524.11 924.547 1525.78C920.814 1528.21 913.027 1526.31 909.367 1527.88L909.271 1527.93L909.281 1527.92C907.931 1528.79 908.122 1530.62 908.047 1532.12C908.047 1539.02 908.027 1554.56 908.059 1559.96C908.144 1561.31 907.911 1563 909.484 1563.26C922.751 1563.56 963.577 1563.23 975.14 1563.38C976.542 1563.45 977.301 1563.78 978.449 1564.32C983.278 1566.16 990.682 1565.37 996.032 1565.41C999.382 1565.18 1004.06 1564.25 1006.11 1563.04C1007.49 1562.34 1009.06 1560.53 1009 1559C1010.48 1555.56 1010.82 1552.45 1010.83 1547V1530.95C1010.47 1522.21 1014.81 1508.44 1010.83 1501.55ZM1026.24 1501.55C1016.51 1500.94 1019.91 1505.31 1017.4 1512.08V1512.06C1016.16 1515.1 1016.66 1516.73 1016.55 1521.16V1558.84C1016.63 1562.12 1016.2 1564.08 1017.63 1564.86C1020.91 1566.32 1024.51 1564.11 1027.85 1563.71C1033.95 1563.14 1042.54 1563.6 1049.32 1563.46C1055.33 1563.63 1054.79 1562.51 1054.85 1557.3V1537.12C1054.82 1534.76 1054.46 1533.09 1053.78 1530.95C1051.87 1524.05 1052.81 1516.45 1049.88 1509.73C1047.39 1506.25 1044.51 1502.27 1040.01 1501.68C1036.02 1501.39 1030.78 1501.62 1026.24 1501.55ZM780.279 1395.12C771.685 1394.61 757.887 1394.06 749.654 1395.38C746.719 1398.41 748.972 1405.86 746.835 1409.32L746.845 1409.33C744.409 1444.62 746.78 1546.12 745.983 1559.79C746.431 1562.8 751.185 1564.08 753.866 1564.83C758.226 1565.38 761.038 1563 765.302 1563.67C788.301 1564.35 824.319 1562.23 843.551 1564.6C847.635 1565.2 853.56 1563.28 852.914 1557.93C853.126 1550.92 852.85 1540.87 852.329 1534.1C858.083 1521.85 862.646 1533.98 863.306 1541.29C865.21 1573.66 853.467 1560.48 895.793 1564.3C903.725 1563.15 898.56 1542.94 900.058 1536.62C901.675 1530.1 900.878 1525.43 900.006 1518.95C899.709 1511.06 900.612 1499.75 899.517 1492.54C895.56 1483.28 889.568 1471.01 879.603 1467.48C864.966 1467.61 832.893 1466.36 815.149 1469.64C812.363 1469.58 809.874 1470.35 810.171 1473.48C809.512 1482.45 811.533 1502.02 809.097 1513.13C794.622 1534.15 806.846 1467.15 798.874 1464.71C794.619 1462.23 793.065 1462.67 790.29 1459.09C783.621 1457.47 781.279 1450.84 780.333 1444.64C780.014 1435.62 780.279 1424.72 780.205 1415.44C780.067 1408.39 785.521 1400.64 780.279 1395.12ZM384.888 1484.69C377.315 1484.81 366.368 1483.75 359.06 1486C356.082 1486.53 351.687 1484.24 349.528 1487.05H349.54C348.53 1488.77 348.582 1490.39 348.507 1493.47C348.603 1498.31 348.294 1504.19 348.677 1508.96C349.22 1513.05 350.19 1513.83 353.487 1514.3C355.666 1514.52 357.551 1514.37 360.421 1514.41H382.57C387.535 1514.26 389.909 1514.7 390.76 1509.64C391.249 1506.61 390.995 1502.26 391.048 1498.89C390.985 1493.47 391.651 1485.14 384.888 1484.69ZM386.887 1465.59C378.091 1465.17 367.633 1465.56 358.56 1465.44C351.562 1465.46 346.719 1465.39 341.529 1465.46C338.531 1465.59 338.186 1466.53 334.944 1467.1C330.881 1468.03 325.764 1467 321.892 1468.08L321.796 1468.12H321.787C320.405 1468.78 320.681 1470.54 320.638 1473.76V1488.74C320.861 1497.62 320.18 1504.43 320.935 1510.2C322.214 1514.84 332.763 1514.86 336.561 1513.62C340.175 1512.88 339.839 1507.62 339.934 1504.26C340.083 1498.35 339.35 1491.52 341.03 1486.11C343.391 1478.68 345.828 1481.13 352.72 1479.68C355.623 1479 358.126 1478.08 362.103 1478.23C367.783 1478.23 376.528 1478.21 381.538 1478.24C383.983 1478.12 386.432 1477.15 388.75 1476.57C392.12 1474.54 391.554 1465.67 386.887 1465.59ZM933.685 1396.07C924.368 1393.26 909.538 1395.08 900.347 1394.63C891.604 1393.57 893.963 1404.37 891.858 1409.64L891.879 1409.63C890.21 1422.39 890.602 1446.77 891.644 1460.24C900.419 1468.34 904.07 1481.41 909.803 1491.76C910.686 1493.88 911.198 1494.07 913.208 1493.98C948.366 1494.08 1027.08 1493.79 1042.94 1494.06C1045.5 1495.84 1046.07 1492.22 1046.86 1490.16C1051.81 1475.58 1049.33 1458.25 1045 1444.64C1044.18 1433.52 1047.54 1407.19 1045 1396.76C1039.11 1393.41 1027.22 1397.12 1020.35 1396.76C1001.57 1396.68 987.413 1392.51 981.985 1397.27C977.975 1402 979.84 1415.89 979.84 1430.71C978.799 1438.46 983.553 1447.08 976.323 1450.1C972.856 1448.86 972.268 1443.88 971.864 1440.21C971.789 1430.93 971.959 1406.3 971.799 1397.27C971.373 1392.87 963.844 1395.19 960.535 1394.62C945.43 1392.63 951.014 1420.86 949.579 1432.06C950.227 1439.03 948.451 1445.72 944.322 1442.66C943.174 1441.24 942.599 1438.58 942.609 1436.22C942.736 1427.54 941.791 1416.55 944.312 1408.43C945.832 1401.68 941.416 1396.16 933.685 1396.07ZM1160.96 1452.15C1157.24 1451.3 1152.43 1448.98 1148.97 1451.9H1148.98C1146.86 1453.99 1150.68 1458.21 1152.47 1459.4C1155.47 1462.66 1159.73 1463.99 1164.07 1462.88C1166.59 1462.35 1168.63 1460.96 1170.96 1459.85C1172.85 1458.81 1179.46 1456.52 1177.75 1453.72C1175.39 1452.04 1172.56 1452.76 1168.67 1452.59C1166.29 1452.62 1162.76 1452.63 1160.96 1452.15ZM455.693 1255.82C446.97 1253.35 426.629 1255.66 398.324 1254.88C375.029 1255.12 341.042 1254.33 321.085 1255.21L321.063 1255.25V1255.21C320.467 1275.39 321.053 1324.44 320.862 1335.43C320.82 1337.37 321.319 1337.84 323.542 1337.82C334.796 1337.87 353.216 1338.63 364.125 1337.84C370.252 1337.39 382.341 1338.7 389.248 1339.63C393.687 1342.38 385.925 1343.35 377.425 1344.54C374.755 1347.17 375.036 1356.21 375.036 1363.15C375.014 1368.09 371.941 1370.58 370.399 1365.11C370.399 1354.78 371.589 1344.54 368.242 1344.54C356.796 1343.79 333.062 1344.33 322.083 1344.33C319.298 1343.9 321.553 1361.93 320.862 1373.81C321.192 1406.49 320.223 1452.71 321.223 1460.73C321.664 1461.2 323.82 1461.24 324.978 1461.24C331.978 1460.85 345.201 1462.23 353.04 1460.28C359.038 1458.25 364.476 1461.08 370.868 1461.16C373.803 1461.1 377.017 1460.52 379.825 1460.59C384.047 1460.69 389.621 1462.26 388.942 1456.13C388.953 1446.91 388.942 1436.17 388.942 1427C388.634 1421.71 390.332 1418.39 385.282 1418.7C377.24 1418.68 351.733 1418.7 342.476 1418.69C338.424 1419.2 335.979 1415.95 336.148 1412.16C336.127 1410.89 337.062 1410.09 338.317 1410.19C351.259 1410.16 424.567 1410.24 434.11 1410.16C436.233 1410.16 435.534 1407.19 435.736 1405.07C436.607 1400.2 433.334 1383.76 438.768 1381.78C441.628 1381.03 443.64 1383.69 443.629 1386.79C442.981 1393.59 443.81 1400.1 444.714 1407.13C446.853 1412.34 455.043 1409.5 459.585 1410.17C462.413 1410.12 463.819 1410.12 463.405 1407.48C463.405 1369.75 463.438 1291.55 463.395 1258.49C462.926 1256.23 457.556 1257.09 455.693 1255.82ZM882.496 1400.3C882.421 1396.47 880.441 1394.25 877.134 1394.48H863.657C842.882 1394.48 811.235 1394.45 792.417 1394.5C791.939 1394.52 791.555 1394.59 791.31 1394.95C790.534 1409.02 791.257 1439.63 791.044 1449.72C791.087 1451.91 791.747 1453.88 794.076 1454.46C796.947 1455.49 800.438 1456.41 803.82 1457.07C808.659 1458.75 814.171 1459.86 819.297 1458.9C822.136 1458.52 823.979 1459.75 826.711 1459.86C835.266 1459.9 860.009 1459.86 872.816 1459.87C874.475 1459.71 876.944 1460.25 878.04 1460.42C883.652 1459.61 882.306 1452.88 882.507 1448.14C882.507 1434.32 882.528 1413.81 882.496 1400.3ZM719.581 1393.14C713.369 1393.13 701.39 1393.12 694.188 1393.14C690.658 1393.09 688.357 1394.6 685.019 1394.97C680.893 1395.68 675.019 1394.72 670.935 1395.68L670.85 1395.72L670.861 1395.74C670.128 1396.03 669.882 1396.69 669.818 1397.45C669.73 1398.73 669.755 1400.88 669.764 1403.62V1431.7C669.764 1439.02 669.744 1445.56 669.776 1449.05C670.138 1454.37 672.329 1456.76 678.987 1456.96C681.869 1457.02 685.585 1457.02 688.211 1456.53C691.283 1456 692.116 1455.14 695.794 1454.9C700.304 1454.75 706.274 1454.89 711.071 1454.84C714.485 1454.81 719.763 1454.75 722.134 1455.48C725.74 1456.08 729.921 1456.65 733.771 1455.97C737.226 1455.15 737.494 1451.02 737.25 1448.08C736.878 1443.34 738.185 1439.42 737.834 1434.1C737.643 1425.89 738.504 1416.61 736.867 1408.69C736.675 1400.77 737.544 1396.27 727.953 1394.7C725.082 1394.12 722.558 1393.1 719.581 1393.14ZM1163.12 1405.34C1160.19 1405 1157 1403.56 1154.15 1404.43C1151.37 1405.52 1149.03 1407.81 1147.52 1410.11L1147.53 1410.1C1146.23 1412.2 1146.29 1415.93 1146.32 1418.83C1146.53 1424.44 1145.26 1431.26 1149.81 1435.01C1152.71 1438.08 1154.8 1438.03 1159.92 1438.17C1164.47 1438.11 1170 1438.31 1174.35 1438.06C1180.17 1437.76 1182.71 1432.36 1182.48 1426.93C1182.78 1420.29 1181.83 1415.65 1178.39 1410.53C1174.47 1406.57 1168.32 1406.64 1163.12 1405.34ZM1030.15 160.782C1018.54 156.666 1005.06 156.07 992.511 158.123C980.758 158.921 969.245 158.857 957.64 161.026C946.897 160.771 935.47 158.188 924.312 159.719C912.931 157.943 902.504 161.656 891.517 163.305C881.37 164.347 865.54 162.231 855.636 163.305C855.978 174.554 852.423 176.921 853.476 187.289C853.466 187.509 852.362 211.943 853.476 213.519C854.595 215.097 855.032 214.97 856.381 215.098C857.75 215.224 876.056 213.949 886.114 213.63C893.495 213.46 899.295 216.153 906.517 215.515C913.429 215.025 917.421 214.353 923.653 214.704C927.289 215.618 929.824 215.79 933.971 215.727H997.68C1002.02 215.472 1005.51 217.641 1009.88 219.386C1015.28 222.12 1018.57 227.673 1022.57 232.013C1026.3 236.863 1031.79 241.131 1035.98 245.832C1047.37 257.405 1060.49 266.703 1071.56 278.403C1076.44 284.327 1083.73 288.233 1087.56 295.061C1090.45 299.742 1088.96 308.126 1090.23 313.157C1090.74 316.602 1091.86 318.892 1091.71 322.571C1091.11 333.879 1092.62 351.824 1091.22 363.121C1090.19 369.11 1088.2 379.058 1089.03 385.823C1089.75 389.927 1109.5 382.252 1109.5 394.364C1109.5 406.214 1089.02 396.737 1087.49 411.331C1086.28 417.543 1087.2 427.075 1089.02 433.233C1090.01 462.989 1089.47 566.503 1089.61 610.063C1092.23 616.307 1092.05 624.212 1091.1 630.902C1088.27 651.496 1085.68 661.743 1075.61 679.868C1072.7 684.952 1074.83 690.539 1073.73 696.112C1072.99 699.728 1071.32 703.005 1070.98 706.727C1069.93 712.194 1071.36 716.408 1072.53 721.279C1072.34 732.182 1072.71 743.385 1072.55 757.309C1071.29 793.422 1074.96 825.049 1070.79 841.517C1070.31 849.324 1070.51 860.675 1069.33 868.238C1071.1 965.445 1072.23 1250.24 1068.47 1283.36C1067.69 1289.57 1070.3 1294.03 1070.38 1300.71C1070.53 1307.47 1070.42 1314.85 1070.35 1321.44C1068.2 1331.97 1068.07 1342.44 1068.23 1352.92C1068.04 1362.79 1061.53 1370.85 1059.99 1380.53C1056.82 1387.47 1065.07 1387.25 1069.68 1389.84C1077.39 1392.11 1091.51 1390.15 1096.95 1390.92C1102.25 1391.68 1118.54 1390.71 1123.96 1387.94C1126.21 1386.37 1128.54 1384.72 1129.99 1382.35C1131.73 1377.37 1129.14 1371.41 1129.92 1366.22C1131.2 1357.42 1133.6 1348.2 1136.42 1339.99C1139.78 1330.45 1137.35 1317.41 1138.06 1307.34C1138.06 1298.56 1135.44 1289.98 1136.3 1281.13C1136.2 1276.89 1138.36 1275.32 1138.07 1271.18C1138.3 1255.27 1137.9 1223.14 1138.07 1204.73C1134.07 1171.97 1136.76 1126.24 1135.79 1091.04C1134.68 1086.24 1132.56 1082.23 1132.18 1076.76C1129.92 1067.64 1135.2 1060.17 1135.91 1051.38C1134.58 1038.68 1138.71 1016.13 1133.65 1003.08C1130.87 986.582 1131.74 965.806 1131.68 947.915C1131.6 943.703 1132.34 940.935 1133.18 937.085C1134.5 929.448 1133.05 919.937 1130.58 912.332C1127.74 891.855 1126.25 871.707 1125.3 851.475C1124.7 839.359 1127.24 828.698 1125.3 817.008C1124.43 801.073 1127.27 785.54 1125.32 769.659C1125.69 746.034 1118.65 723.353 1128.89 700.791C1131.45 692.622 1133.67 684.813 1137.82 677.314C1141.83 669.391 1147.88 662.23 1148.47 653.083C1149.04 640.127 1147.82 625.211 1150.6 612.606C1151.27 606.023 1148.88 601.403 1148.73 595.16C1148.74 580.342 1147.8 558.311 1150.83 543.004C1151.31 529.218 1150.3 513.952 1148.09 500.433C1145.35 490.455 1147.57 477.603 1145.96 467.274C1142.96 454.382 1148.48 441.307 1145.37 428.064C1145.15 416.119 1147.83 403.438 1140.36 392.769C1136.79 384.76 1145.86 377.727 1147.2 370.26C1146.97 343.954 1145.34 306.689 1147.33 281.744C1147.77 277.851 1144.88 272.711 1142.76 269.137C1135.76 254.118 1120.99 244.478 1107.78 235.575C1095.92 224.215 1084.57 212.099 1072.69 200.727C1067.3 195.42 1063.13 189.121 1057.08 184.473C1049.1 175.261 1042.62 164.442 1030.15 160.782ZM741.483 1258.38C734.878 1254.32 725.336 1256.95 717.029 1256.25C709.934 1256.27 702.836 1256.21 695.848 1256.27C690.999 1256.53 687.911 1258.53 682.945 1258.35C678.872 1258.53 675.071 1257.41 671.36 1256.42C663.627 1255.94 650.381 1256.42 636.99 1256.25C630.002 1256.72 622.383 1255.15 617.065 1257.02L617.023 1257.08L616.981 1257.1C615.726 1264.6 616.82 1278.08 616.48 1286.25C617.033 1294.35 619.108 1299.85 619.98 1307.53C621.267 1315.15 622.173 1323.04 624.534 1330.39C626.629 1335.18 629.14 1339.61 630.342 1344.75C632.247 1354.27 636.874 1362.2 641.874 1370.27C645.873 1376.4 648.694 1387.23 657.022 1388.16C663.828 1387.4 670.542 1387.35 676.987 1385.37C688.018 1384.99 708.836 1385.32 719.303 1385.22C722.961 1385.26 723.774 1385.57 725.762 1386.9C740.597 1388.18 806.235 1386.95 831.903 1387.36C833.784 1387.39 835.572 1387.67 835.584 1385.39C836.595 1378.18 834.001 1368.68 837.307 1361.8C846.187 1356.99 843.224 1371.3 843.053 1378.21C842.81 1385.94 851.562 1387.13 858.486 1386.76C876.1 1388.4 1011.2 1386.82 1029.53 1387.35C1033.42 1387.6 1030.58 1379.34 1029.37 1377.46C1028.09 1375.65 1026.1 1374.69 1024.07 1373.62C1017.53 1370.85 1011.18 1368.32 1004.26 1366.58C992.353 1363.02 981.649 1354.22 968.523 1357.25C958.726 1356.88 942.397 1358.12 932.44 1356.63C921.4 1352.2 928.93 1348.03 937.312 1347.83C945.885 1348.03 955.727 1349.09 964.214 1348.62C966.331 1348.46 969.989 1347.03 969.821 1344.21C969.406 1328.6 970.778 1280.32 969.204 1265.69C968.98 1264.22 968.893 1261.72 967.576 1260.39C965.086 1258.14 955.951 1257.31 953.95 1260.59C952.291 1263.38 953.013 1268.59 951.917 1272.05C949.514 1280.79 951.141 1287.75 950.695 1300.56C949.94 1313.75 952.417 1322.82 949.248 1333.32C944.089 1344.87 942.121 1336.53 943.248 1327.44C943.056 1319.85 943.1 1313.53 945.153 1306.58C945.695 1298.22 943.025 1287.27 943.312 1278.55C944.535 1271.84 948.44 1259.33 934.642 1260.04C931.792 1259.05 928.514 1259.74 925.823 1258.42C879.103 1258.32 793.097 1258.47 741.483 1258.38ZM1054.67 1340.09C1052.13 1340.2 1050.26 1341.23 1047.36 1341.15C1043.54 1341.18 1037.74 1341.15 1033.56 1341.16C1030.19 1341.2 1028.21 1341.01 1027.32 1342.09L1027.33 1342.1C1025.98 1344.66 1026.83 1349.92 1026.59 1353.26C1026.59 1356.82 1026.35 1362.45 1028.56 1364.54C1030.13 1366.2 1031.53 1368.09 1033.07 1369.79C1035.3 1372.32 1037.71 1373.85 1039.23 1376.82C1040.96 1381.1 1042.72 1384.77 1047.72 1381.26C1051.45 1378.33 1050.59 1371.37 1051.69 1367.02C1052.11 1364.29 1053.27 1362.48 1054.07 1360C1055.24 1356.27 1055.24 1351.91 1055.52 1347.95C1055.63 1344.61 1057.93 1340.68 1054.67 1340.09ZM1048.04 1106.56C1044.18 1106.44 1033.29 1102.52 1031.79 1107.06C1031.76 1117.96 1031.79 1186.09 1031.79 1211.03C1031.13 1214.08 1033.84 1218.82 1028.82 1218.54C1019.9 1217.72 1008.38 1220.8 1000.51 1216.47C996.628 1210.75 997.69 1202.57 996.776 1195.74C995.904 1186.3 994.49 1178.77 997 1169.8C997.042 1158.89 997.001 1132.76 997.011 1119.08C996.703 1113.97 997.796 1111.23 996.17 1107.49C993.883 1104.86 985.544 1104.53 984.703 1109.48C978.076 1136.1 984.798 1191.71 980.628 1228.87V1228.84C980.15 1231.72 981.181 1234.83 981.128 1237.96C981 1241.69 979.534 1246.48 979.64 1250.72C980.438 1258.48 981.491 1265.97 982.608 1273.34C983.47 1275.88 986.194 1275.91 988.48 1275.81C992.44 1275.64 1004.76 1276.58 1008.99 1277.23C1013.9 1277.58 1017.65 1281.71 1012.52 1283.94C1006.93 1287.24 980.502 1280.88 980.863 1290.27C982.096 1297.28 981.788 1305.21 981.767 1312.35C980.682 1321.51 978.184 1329.58 981.725 1338.43C983.427 1342.86 985.341 1347.62 989.415 1350.15C992.139 1352.01 1000.68 1355.16 1000.7 1349.46C1000.86 1339.65 1000.78 1325.33 1000.73 1315.56C1000.13 1311.28 995.692 1301.6 1003.49 1304.39C1010.06 1306.61 1008.56 1310.48 1007.88 1315.92C1008.92 1323.25 1005.04 1354.05 1010.83 1356.93C1017.89 1361.51 1023.05 1352.73 1022.74 1346.27C1023.21 1338.59 1022.04 1330.9 1021.88 1323.7C1022.23 1319.85 1024.12 1314.25 1027.33 1319.5C1033.57 1332.37 1022.54 1335.3 1041.89 1334.32C1046.29 1333.57 1055.43 1336.64 1057.52 1333.25C1058.53 1320.11 1057.52 1259.47 1057.87 1245.31C1058.22 1241.04 1060.77 1242.52 1060.04 1236.68C1060.05 1203.04 1060.04 1126.72 1060.04 1111.69C1062.57 1103.67 1052.6 1107.22 1048.04 1106.56ZM970.779 857.559C964.057 857.133 957.457 858.612 950.14 858.612C944.163 858.655 936.971 858.42 931.228 858.792C927.038 859.526 922.334 860.419 918.941 861.302C918.175 881.029 918.995 1057.73 918.697 1111.2C918.601 1111.97 918.205 1112.33 917.537 1112.9C916.388 1114.02 913.771 1116.26 911.825 1116.92C909.783 1117.65 907.835 1116.78 905.708 1116.73C897.007 1116.61 877.221 1116.78 866.093 1116.68C859.882 1116.98 859.254 1112.39 860.668 1107.71C862.253 1092.12 860.785 1057.42 861.263 1044.16C861.263 1043.1 861.092 1041.71 860.752 1040.96C860.21 1039.71 859.603 1039.3 859.327 1037.75C858.869 1031.71 859.275 1024.83 859.147 1017.2C859.147 1005.34 859.125 985.191 859.157 975.488C859.189 973.149 860.093 971.678 860.476 969.201C860.997 966.266 859.827 961.988 859.476 958.69C858.891 954.968 859.837 950.626 859.774 947.244C858.476 935.054 859.413 916.682 859.147 902.205C859.073 897.889 859.357 897.1 856.605 897.036C848.35 896.994 809.601 897.035 797.694 897.014C796.631 897.003 795.246 896.895 794.48 896.577C793.067 896.056 792.701 895.365 791.034 895.067C774.759 894.493 740.348 895.11 728.793 894.865C727.422 894.727 726.378 894.64 725.453 893.971C724.252 893.057 723.61 892.694 721.624 892.747C691.084 893.236 638.599 891.727 618.63 893.535C616.982 893.705 615.248 893.76 614.152 894.886C612.652 896.407 612.641 898.727 612.46 900.79C611.865 906.151 613.352 915.726 611.119 920.173L611.067 920.193C608.493 934.714 611.086 1121.38 610.193 1138.73C610.205 1140.55 611.875 1140.23 612.97 1143.06C613.374 1143.95 613.737 1145.12 614.002 1146.45C614.587 1149.04 614.31 1151.85 613.842 1154.41C613.225 1157.82 612.342 1158.01 612.321 1160.52C612.183 1182.71 612.396 1233.69 612.333 1246.32C612.334 1247.85 613.323 1248.4 614.769 1249.02C616.438 1249.69 618.502 1250.31 620.341 1250.74C631.895 1251.77 657.437 1250.77 669.638 1251.08C673.679 1250.83 676.925 1248.95 681.189 1249.03C702.837 1253.78 903.655 1249.37 926.899 1251.52C933.292 1254.95 943.292 1251.79 950.258 1252.3C957.201 1252.66 955.599 1246.33 956.3 1241.44C957.3 1236.94 956.736 1229.13 957.151 1224.06C957.364 1222.04 957.631 1221.18 958.056 1221.3C959.725 1221.91 960.97 1228.03 961.066 1230.61C962.086 1236.2 958.707 1250.25 966.279 1250.13C968.363 1250.28 972.15 1248.8 972.364 1246.54C971.013 1229.71 977.969 1033.29 973.97 1021.17C970.418 1021.84 962.917 1021.7 959.215 1022.05C953.249 1023.09 946.896 1022.88 940.376 1022.83C934.547 1023.1 932.367 1019.13 936.515 1016.01C940.302 1013.44 945.367 1012.93 950.046 1012.37C955.654 1011.53 971.576 1016.37 974.757 1011.36C975.161 1010.04 974.799 1008.8 974.671 1007.36C974.076 1003.65 976.501 997.879 976.374 993.412C976.469 988.083 978.15 982.699 976.054 977.477C976.522 973.457 976.757 973.687 976.97 970.465C976.991 969.668 977.011 968.806 977 967.935C977.032 950.713 977.99 918.374 978 907.257C977.819 903.599 977.479 902.245 977.458 898.066C977.266 891.759 978.916 884.269 978.906 877.791C979.087 872.495 976.416 870.46 976.725 865.908C976.895 861.963 975.956 857.029 970.779 857.559ZM601.301 854.898C592.239 855.207 572.942 854.378 563.527 855.154C559.826 856.453 561.929 867.749 559.314 871.633C558.889 881.836 559.281 912.194 559.154 934.298C558.037 945.637 563.533 962.603 549.081 961.265C530.912 961.52 511.954 960.203 496.721 963.117C490.679 963.063 480.819 958.214 477.297 965.254C475.511 978.306 476.352 992.296 476.171 1005.55C475.937 1017.33 475.927 1015.68 485.723 1014.33C491.37 1012.56 494.84 1011.91 501.806 1012.33C514.475 1012.6 528.572 1011.76 538.56 1012.71C553.109 1011.38 553.177 1023.28 552.762 1034.96C552.752 1046.51 552.781 1062.67 552.739 1069.51C550.271 1078.34 550.422 1087.44 552.517 1096.3C552.74 1099.97 552.971 1106.05 548.506 1107.02C545.805 1107.38 542.677 1106.86 542.283 1104.08C541.836 1091.24 542.262 1040.35 542.113 1026.67C542.272 1024.61 541.186 1023.09 539.337 1022.25C532.551 1019.65 526.197 1021.29 517.061 1020.86C500.957 1020.81 489.603 1020.27 475.626 1024.25L475.522 1024.35V1024.32C470.906 1034.37 477.744 1045.8 476.149 1056.72C476.404 1063.24 476.085 1069.29 474.245 1075.26C473.777 1083.09 474.022 1095.37 474.128 1103.55C479.234 1137.55 474.703 1225.76 476.16 1244.12C475.426 1246.68 475.587 1248.72 478.798 1249.89C490.446 1251.51 509.412 1250.42 519.858 1250.43C528.25 1247.62 537.487 1249.54 545.964 1248.48C559.146 1247.98 588.218 1249.41 604.408 1247.98C607.147 1246.29 598.878 1243.1 603.725 1241.56C603.895 1216.61 603.279 877.179 605.109 856.08C604.29 854.879 602.726 854.962 601.301 854.898ZM461.979 852.804C445.137 853.133 333.488 851.932 321.233 853.251C319.553 862.463 322.616 877.143 319.606 886.759L319.574 886.823L319.594 886.812C317.191 900.708 319.487 955.911 318.721 970.593C318.923 973.316 319.638 976.052 322.211 977.541C336.114 979.54 354.061 977.668 368.453 978.296C380.381 978.882 365.565 986.345 361.477 986.815C357.67 988.954 357.66 993.922 357.331 999.027C356.937 1005.23 358.391 1014.72 356.381 1020C352.85 1025.19 350.104 1019.54 350.54 1014.93C348.566 990.889 356.379 985.883 328.541 986.815C322.435 987.145 318.01 986.988 318.711 993.156C322.029 1008.72 311.495 1155.15 324.701 1161.24C337.913 1167.33 396.059 1159.48 398.417 1162.57C406.963 1173.79 373.352 1171.95 363.898 1171.89H325.212C320.351 1171.52 318.446 1174.68 318.711 1179.59C318.85 1189.89 318.456 1212.12 318.849 1221.88C320.721 1227.96 321.073 1234.82 320.85 1241.31C321.03 1243.14 320.34 1246.18 322.743 1246.33C348.243 1245.72 428.259 1246.2 455.086 1248.48C461.063 1248.41 465.362 1249.24 465.395 1242.06C465.119 1218.29 466.574 1171.95 464.808 1157.21C460.874 1150.7 468.698 1137.84 458.82 1136.35C449.416 1136.39 420.528 1141.28 414.674 1133.13C410.443 1124.65 459.912 1132.57 464.043 1127.99C468.053 1110.8 464.214 1012.37 465.491 971.711C462.13 964.935 463.691 956.009 463.373 948.34C467.202 928.076 464.979 889.823 465.479 873.388C465.234 870.08 463.672 867.791 463.586 864.261C462.619 860.166 464.785 855.028 461.979 852.804ZM1026.92 1111.71C1026.61 1106.65 1023.29 1105.7 1018.87 1106.66C1015.02 1107.74 1009.22 1107.52 1005.04 1107.94H1005.03C1004.01 1108.12 1003.77 1108.72 1003.79 1109.62V1208.65C1003.74 1210.34 1004.68 1210.44 1006.57 1210.54C1009.56 1210.67 1013.35 1210.55 1017.31 1210.59C1019.77 1210.38 1025.1 1211.33 1025.03 1208.92C1025.14 1195.77 1025.02 1150.03 1025.07 1127.43C1025.16 1125.32 1026.07 1125.3 1026.67 1122.28C1027.31 1118.92 1027.32 1115.07 1026.92 1111.71ZM901.677 859.048C895.913 859.058 886.328 859.016 881.2 859.069C877.754 859.463 873.539 859.984 870.316 859.463C868.699 878.092 870.274 963.935 869.742 995.635C869.008 1017.51 871.388 1038.12 868.498 1040.31L868.465 1040.35H868.477C867.914 1040.79 867.582 1042.27 867.625 1043.27C868.082 1055.08 866.732 1095.66 868.125 1107.17C872.911 1109.51 876.306 1105.65 882.006 1106.03C890.069 1106.05 899.538 1106.02 907.356 1106.03C909.619 1105.88 910.069 1106.25 910.175 1105.14C908.622 1085.32 913.748 878.066 907.324 860.611C906.558 859.07 904.749 859.037 901.677 859.048ZM987.256 931.5C983.848 931.235 983.406 935.317 983.267 938.114C983.735 943.687 984.212 951.173 982.746 956.595C981.885 965.05 988.363 967.307 995.5 965.552C1000.16 965.488 1008.7 965.551 1015.53 965.52C1020.86 966.04 1025.4 963.936 1028.23 968.095C1032.41 982.908 1005.91 972.554 998.447 974.03C986.076 973.53 981.001 973.723 982.522 987.7C981.171 1000.52 981.883 1015.5 981.979 1028.56C982.832 1036.81 994.139 1032.61 1000.01 1033.61C1006.27 1034.55 1034.24 1031.09 1034.86 1036.3C1039.37 1045.88 1022.9 1041.01 1016.9 1042.12C1004.03 1042.58 992.128 1041.18 985.139 1042.73C983.278 1045.34 984.33 1049.68 983.289 1052.77C981.162 1058.73 981.938 1066.14 981.821 1072.67C982.118 1079.48 980.8 1087.47 983.501 1093.31C987.683 1100.48 997.288 1094.32 1003.66 1094.41C1008.99 1094.17 1014.69 1095.71 1020.39 1095.35C1028.93 1096.37 1053.74 1101.52 1058.32 1092.36C1057.14 1079.03 1058.02 971.68 1057.76 936.33C1058.17 933.28 1055.28 931.61 1052.48 931.5H987.256ZM482.648 854.889C480.798 854.846 478.723 854.656 478.542 856.909C478.106 860.005 478.542 865.973 477.022 869.536C476.618 870.503 476.235 871.229 476.181 872.303C476.139 875.41 476.181 882.197 476.16 890.599V951.585C476.181 954.795 475.948 954.873 479.075 954.873C500.073 954.841 525.764 954.946 546.028 954.829C548.504 954.593 548.741 951.371 549.698 949.223C549.963 948.437 550.218 947.818 550.399 947.244C551.048 933.796 550.421 866.533 550.613 856.527C550.57 855.21 550.376 854.952 548.826 854.909C530.583 854.856 501.115 854.91 482.648 854.889ZM1056.93 861.781C1056.92 860.005 1056.39 856.967 1054.24 857.506C1052.67 857.91 1051.04 858.75 1049.28 858.708C1038.94 858.74 1007.29 858.708 990.703 858.708C987.48 858.846 985.65 858.123 985.085 860.451V860.463C984.958 862.877 985.659 865.984 985.085 868.271C984.873 869.302 984.596 870.569 984.638 872.472V917.438C984.331 920.266 987.001 921.373 989.266 922.064C991.776 922.989 993.99 923.575 997.393 923.405H1041.25C1043.7 923.49 1045.08 922.969 1046.23 922.82C1051.03 922.119 1059.75 923.116 1059.08 915.608C1059.1 910.311 1059.09 900.822 1059.08 895.205C1059.3 890.558 1056.79 887.354 1056.98 882.834C1056.93 877.101 1057.01 867.068 1056.93 861.781ZM683.477 855.208C669 854.336 634.662 855.059 616.322 854.942C613.961 855.464 613.757 859.388 612.992 861.441H612.98C611.587 866.685 612.29 872.559 612.141 878.016C612.184 882.514 612.748 886.481 618.321 886.066C624.458 885.886 630.555 887.503 636.703 886.408C640.274 885.823 640.267 884.781 642.904 884.685C643.199 884.679 643.519 884.676 643.864 884.675H698.125C702.048 884.855 703.86 884.057 705.902 885.812C706.455 886.396 707.402 886.811 708.379 886.801C720.33 886.822 768.909 886.801 790.534 886.801C791.723 886.801 792.384 887.1 792.852 887.472C793.831 888.524 795.216 888.993 796.853 888.93H856.467C860.547 889.373 858.944 884.205 859.294 881.206C859.156 876.462 859.328 869.941 860.615 866.08C863.9 854.413 848.307 862.182 840.648 857.047C828.69 856.972 756.037 857.049 726.974 857.007C725.806 857.028 725.271 856.177 724.251 855.729C720.88 854.4 715.921 855.027 711.794 854.879C708.838 854.89 705.867 854.845 702.964 854.898C699.009 855.037 697.836 855.857 694.88 856.432C691.148 857.314 686.827 856.781 683.477 855.208ZM909.793 762.055C907.486 761.417 904.368 762.651 902.74 764.416H902.75C901.963 765.32 901.442 766.257 901.41 767.447C901.707 788.116 900.772 837.196 901.74 847.889C902.102 848.451 902.943 848.687 904.005 848.942C908.27 849.719 911.655 851.611 916.25 851.229C929.57 851.218 963.663 851.262 972.992 851.209C974.383 851.145 975.173 850.825 976.364 850.357C977.535 849.826 980.045 849.368 981.704 849.24C986.065 848.879 994.232 849.96 992.617 843.634C992.085 841.55 990.682 839.431 990.766 837.485C990.798 836.635 990.999 835.761 991.095 834.879C991.51 827.699 991.213 816.709 991.255 809.199C991.308 804.892 989.171 802.847 989.17 798.774C989.096 792.136 989.171 777.585 989.128 770.511C988.99 767.597 988.816 763.705 985.67 763.055C974.447 762.289 938.409 763.022 918.431 762.777C915.443 762.692 912.526 763.127 909.793 762.055ZM1063.68 555.163C1053.52 553.461 1040.6 554.312 1030.24 554.546C1024.76 555.748 1018.02 557.501 1012.8 555.035C1004.37 553.492 998.17 553.526 994.362 560.96L994.32 561.077V561.056C992.81 565.172 993.354 569.769 998.789 569.216C1006.04 569.513 1017.11 568.758 1024.47 569.587C1029.24 569.993 1029.15 577.02 1024.48 577.416C1018.86 579.468 997.089 574.568 995.874 580.714C998.66 586.274 999.553 583.068 996.841 588.799C998.653 592.647 1039.35 591.248 1024.05 598.734C1016.61 600.33 1003.62 597.035 998.192 602.256C988.833 620.391 1030.37 601.364 1031.42 615.362C1028.97 621.901 1008.34 616.543 1001.66 618.882C995.065 620.777 999.637 632.893 997.542 638.275C996.578 651.121 1025.39 634.478 1028 646.23C1027.11 655.196 999.033 646.424 999.67 656.869C989.672 712.533 1012.99 684.581 1028.23 695.888C1026.83 704.139 1013.64 700.655 1007.24 701.855C999.236 700.877 999.106 706.196 999.106 713.035C998.861 717.48 997.106 720.919 997.137 725.523C997.552 734.64 995.884 746.183 998.607 754.98C999.671 790.869 1001.29 769.862 1032.87 775.223C1036.96 776.766 1033.56 780.83 1030.83 782.426C1025.97 785.52 1020.02 785.266 1014.02 785.255C994.83 783.16 999.224 797.138 1001.37 810.222C1002.37 822.571 998.395 838.879 1006.79 848.846C1018.02 850.441 1044.01 848.9 1054.94 849.399C1056.42 849.452 1058.41 848.983 1059.13 847.984C1059.9 819.742 1058.59 758.853 1059.67 739.278C1062.61 734.385 1061.14 727.012 1061.48 720.918C1061.27 712.568 1062.22 704.014 1059.7 696.079C1057.74 689.996 1046.61 691.673 1045.97 685.463C1051.91 679.274 1064.04 686.524 1067.77 675.112C1071.28 669.858 1071.69 663.569 1073.31 657.709C1075.13 653.519 1078.21 651.825 1078.47 646.519C1078.71 635.617 1084.05 621.445 1078.37 612.052C1074.65 608.352 1062.91 611.848 1061.24 606.149C1063.23 594.397 1083.19 611.018 1078.01 587.852C1065.56 566.748 1091.48 555.121 1063.68 555.163ZM792.64 733.045C789.918 731.694 787.384 728.898 783.715 729.768C776.824 731.534 780.704 738.959 780.502 743.863C780.152 755.277 781.756 768.172 778.534 778.543C777.471 781.765 777.979 785.476 775.269 786.637C757.46 788.541 575.374 783.149 560.25 788.647C560.474 793.497 559.049 797.936 558.687 802.69C558.209 813.604 560.047 831.613 557.441 841.432L557.42 841.453C556.793 843.133 556.762 844.464 558.399 844.496C572.352 844.517 656.138 844.454 689.242 844.528C693.666 846.952 698.498 845.507 703.22 845.379C713.549 848.08 724.828 846.039 748.292 846.635C772.108 846.635 800.757 846.613 823.202 846.635C824.263 846.615 824.947 847.283 825.733 847.867C826.934 848.568 828.043 848.699 829.872 848.763C846.923 848.784 867.062 848.974 884.39 848.102C892.918 847.526 891.251 838.995 889.294 833.305C889.209 819.453 889.305 763.075 889.316 739.693C890.718 736.418 888.27 733.366 884.698 733.194C871.378 733.099 811.503 733.385 792.64 733.045ZM460.096 820.848C439.118 820.88 352.243 820.795 321.796 820.869C320.287 821.093 319.372 821.902 318.872 823.571L318.861 823.561C317.447 828.422 318.106 835.167 317.989 839.794C318.116 841.347 317.66 843.985 319.69 844.198C332.714 844.294 387.496 844.283 401.59 844.198C403.343 844.038 403.602 843.25 405.1 842.634C405.973 842.283 407.421 842.082 409.631 842.124C422.396 842.135 441.365 842.102 453.534 842.134C456.565 842.019 461.404 845.077 462.51 840.645C462.755 838.167 462.15 835.591 462.394 833.081C462.66 830.463 463.316 820.82 460.096 820.848ZM534.22 780.553C529.285 780.266 522.996 780.51 516.476 780.435C512.563 780.51 508.806 780.171 505.636 780.883C503.957 781.297 502.858 781.989 501.147 782.255C494.042 782.967 482.351 782.383 476.021 782.574C474.745 782.627 473.382 782.49 472.33 783.053V783.031C471.809 783.372 471.702 783.99 471.649 784.585C471.521 797.308 471.617 824.487 471.617 834.369C471.638 835.315 471.894 836.189 472.383 836.891C472.904 837.697 473.552 838.103 473.595 839.027C473.637 839.761 473.192 840.869 472.798 841.603C472.256 842.591 472.034 843.316 472.756 843.805C473.117 844.048 473.491 844.156 473.979 844.209C478.247 844.294 490.183 844.219 503.381 844.251H536.358C541.685 844.251 545.921 844.272 548.25 844.24C548.728 844.24 549.21 844.134 549.592 843.933C551.344 842.794 549.454 840.718 549.039 838.113C548.39 824.487 549.005 807.326 548.803 792.944C548.527 788.755 549.928 784.946 545.73 783.595C541.902 782.435 538.197 781.021 534.22 780.553ZM450.694 786.809C433.419 786.84 377.497 786.744 354.529 786.829C352.328 787.021 352.696 788.308 348.561 788.766C341.307 789.17 332.87 788.819 325.744 788.935C323.128 788.967 321.616 788.99 320.839 790.063H320.862C320.224 791.063 320.18 792.531 320.126 793.775C320.073 796.498 320.084 800.69 320.105 803.838C320.126 806.242 320.277 809.264 323.137 809.807C326.062 810.412 330.382 810.126 333.147 810.935C335.23 811.371 335.373 812.061 337.084 812.306C351.274 812.263 426.377 812.498 454.076 812.232C456.862 811.392 459.651 809.806 461.671 807.594C462.606 806.552 462.703 805.369 462.608 803.86C462.555 802.382 462.32 800.528 462.097 798.04C461.948 796.158 461.978 794.04 461.797 792.2C461.542 790.362 461.551 789.307 460.458 788.531C458.916 787.756 456.565 788.317 454.917 787.925C453.311 787.627 452.288 786.799 450.694 786.809ZM654.552 733.62C641.754 733.578 583.207 733.567 558.729 733.609C558.123 733.631 557.549 733.696 557.283 734.279H557.303C556.761 745.619 556.825 767.543 557.229 777.574C557.687 778.646 558.57 778.202 559.825 778.309H688.731C689.921 778.299 690.456 778.797 691.466 779.371C692.286 779.807 693.766 780.245 696.518 780.383C702.965 780.585 714.168 780.201 720.901 780.584C725.048 781.137 728.827 782.584 733.144 782.52C737.674 782.658 741.794 781.339 746.027 780.701C748.569 780.351 752.463 780.446 755.409 780.435C758.663 780.276 762.59 780.966 765.44 779.499C767.523 778.127 768.004 775.573 768.588 773.202C769.046 771.203 769.524 769.297 769.663 767.224C769.907 760.661 769.662 750.799 769.747 743.332C769.492 739.567 770.669 735.558 767.333 735.747C747.643 735.279 712.903 736.588 699.295 735.142C688.988 736.014 672.827 735.693 662.573 735.704C660.15 735.63 658.69 735.29 657.796 734.907C656.5 734.323 656.061 733.737 654.552 733.62ZM454.969 750.64C443.672 750.799 415.015 750.311 401.674 750.821C396.91 751.778 392.11 752.821 386.388 752.63C378.199 752.098 373.77 750.278 365.667 750.629C360.285 750.65 353.656 750.587 349.646 750.661C345.956 750.693 343.102 752.234 339.465 752.171C336.595 752.235 333.657 752.002 330.787 751.63C327.404 751.502 322.232 750.11 319.849 753.193V753.203C318.02 756.958 318.944 763.47 318.721 768.022C318.838 773.266 318.478 778.127 321.275 780.01C351.935 781.137 449.234 780.064 462.235 780.393C463.87 780.285 463.16 777.573 463.383 775.925V759.606C463.574 753.3 460.478 750.715 454.969 750.64ZM541.218 710.237C520.348 710.205 493.956 710.205 473.66 710.237C473.128 710.258 472.585 710.271 472.234 710.664H472.244C471.479 713.067 472.085 715.654 471.894 721.194V738.13C471.894 749.66 471.873 761.585 471.905 766.511C471.905 767.446 472.14 768.415 472.863 768.936C474.575 769.999 476.788 770.788 478.595 771.819C480.519 772.798 481.863 773.809 484.542 773.99C490.201 774.15 496.117 774.011 501.829 774.054C507.061 774.128 511.329 774.192 515.976 772.884C519.475 772.289 523.445 774.138 527.231 774.032C532.028 773.979 538.018 774.288 542.826 773.82C547.727 773.479 548.41 771.073 548.474 766.021C548.378 758.597 548.686 746.288 548.346 739.257C548.187 737.567 547.676 736.363 547.176 734.811C546.432 732.376 546.358 729.853 546.358 726.769C546.305 723.121 546.538 719.268 546.07 715.716C545.432 711.176 544.365 710.546 541.218 710.237ZM986.394 668.155C973.862 666.741 927.409 668.135 903.485 667.656C901.56 667.72 900.347 667.497 900.4 668.751L900.41 668.761C901.154 672.249 902.09 676.944 901.24 681.22C900.74 684.548 899.389 686.815 899.538 690.345C899.591 698.759 899.452 713.866 899.58 723.046C899.814 727.055 901.569 728.419 901.601 733.013C901.739 737.267 901.612 742.119 901.666 746.32C901.751 748.553 901.751 749.95 902.868 751.268C904.325 752.777 906.878 753.161 908.75 753.725C910.567 754.224 911.624 754.885 913.442 754.885C924.978 754.874 968.259 754.937 987.054 754.862C989.061 754.935 988.821 752.724 988.874 751.183C988.895 745.864 988.874 732.098 988.874 724.875C988.873 723.174 988.606 720.769 988.212 719.821C987.766 718.578 987.277 717.949 987 716.61C986.033 705.196 987.553 677.603 986.394 668.155ZM459.873 693.697C450.991 692.495 434.875 693.494 425.971 693.218C423.493 693.207 421.534 693.868 419.822 695.017C408.489 696.452 339.372 693.857 318.999 695.984H318.987C318.189 703.272 318.988 720.409 318.711 731.152C318.531 734.141 319.425 738.545 320.552 740.289C321.2 741.355 321.681 742.086 322.737 742.13H452.768C454.096 742.086 454.865 741.458 456.268 740.937C457.789 740.172 460.193 739.236 461.671 738.173C463.361 736.864 463.234 734.576 463.373 732.566C463.383 724.918 463.394 707.93 463.373 700.44C463.245 697.665 463.061 694.315 459.873 693.697ZM610.279 686.431C607.642 685.739 606.277 684.496 603.194 684.686H563.387C559.933 684.75 558.166 684.465 557.485 685.356C556.251 692.537 557.368 711.344 557.017 719.322C557.017 720.854 556.806 723.108 558.815 722.96C580.314 723.226 625.543 722.546 638.649 723.216C641.797 724.832 646.331 725.269 650.127 725.057C657.828 724.418 665.946 721.259 673.562 724.142C702.742 726.886 775.736 724.131 791.544 725.152C792.266 725.27 792.662 725.578 792.992 725.929C794.885 728.096 798.247 726.96 801.224 727.236C820.798 726.683 863.434 728.344 875.859 726.578C876.881 725.994 879.37 725.493 880.869 725.344C884.208 724.749 887.836 725.704 890.081 723.972C891.43 722.366 890.858 720.714 891.028 717.737C891.007 714.717 891.038 710.918 891.028 707.674C890.868 703.6 891.708 697.951 890.071 694.462C889.305 692.856 887.751 691.707 886.613 690.314C884.837 688.294 884.823 686.815 882.549 686.814H759.174C758.197 686.899 757.335 686.345 756.93 685.686C756.558 685.208 756.066 684.741 754.898 684.698H642C640.97 684.73 640.51 685.187 639.671 685.719C638.884 686.346 636.213 686.761 634.618 686.793C627.874 686.655 617.204 687.292 610.279 686.431ZM546.048 600C537.271 598.756 506.849 600 486.51 599.564C478.981 599.745 475.223 599.193 472.288 599.83L472.255 599.852V599.862C471.245 625.403 472.234 680.068 471.905 699.812C471.862 701.216 472.15 701.718 473.532 701.676C483.844 701.644 529.572 701.761 546.347 701.676C548.801 701.801 548.378 698.929 548.484 697.153C548.505 693.749 548.505 687.685 548.484 683.324C548.505 681.272 548.112 677.9 547.4 676.506C546.847 675.358 546.464 674.686 546.389 673.283C546.006 660.857 546.995 617.669 546.048 600ZM462.959 653.221C444.28 651.934 366.253 653.155 337.338 652.794C336.212 652.954 335.324 653.023 334.495 653.745C332.57 655.403 329.999 653.842 326.98 653.745C324.418 653.766 321.753 655.846 319.828 656.22L319.765 656.252V656.262C319.095 656.624 318.861 657.933 318.744 660.507C318.68 663.687 318.742 667.007 318.721 670.857C318.817 676.154 318.466 680.985 318.945 685.197C319.254 686.866 320.798 686.751 322.202 686.804C329.672 686.825 353.167 686.804 363.57 686.804C367.397 686.814 368.368 686.686 370.399 685.219C382.541 683.762 445.33 685.133 458.607 684.676C459.414 684.676 460.107 684.558 460.553 683.879C464.392 677.188 463.256 664.454 463.383 657.114C463.383 655.914 463.341 653.631 462.959 653.221ZM753.6 601.31C740.409 597.097 677.135 600.628 619.767 599.521C598.685 599.819 571.878 598.894 557.166 599.872V599.904L557.145 599.926C556.741 618.116 557.124 662.409 557.028 671.964C557.07 672.994 557.231 673.624 558.347 673.868C566.293 674.495 577.005 673.677 585.354 674.262C589.531 674.772 588.845 676.166 590.014 676.198C660.915 677.049 825.135 674.07 851.625 678.144C857.582 677.283 863.434 675.634 869.709 676.272C876.198 676.921 884.178 678.59 889.56 674.08C890.377 673.092 890.261 671.931 889.943 670.762C887.624 659.593 889.42 637.084 888.899 625.563C888.814 622.086 890.4 620.274 890.73 616.658C891.506 610.681 891.142 601.833 884.22 601.671C861.042 601.596 810.525 601.724 793.385 601.639C790.94 601.16 789.065 599.894 786.258 599.776C780.335 598.936 776.587 601.159 770.366 601.596C765.037 601.596 758.727 601.958 753.6 601.31ZM932.75 599.575C928.261 599.256 925.662 601.765 921.344 601.649C917.313 601.788 910.92 601.606 906.973 601.755C904.569 601.936 901.155 602.023 900.527 604.83L900.505 604.84C899.835 608.786 899.485 613.436 900.166 617.275C900.772 619.615 901.377 621.766 901.388 624.254C901.42 629.605 901.387 639.307 901.398 645.466C901.451 648.825 901.081 650.784 900.613 652.518C899.879 655.027 899.071 656.687 901.58 656.996C912.074 657.06 969.776 657.008 981.979 657.018C985.604 657.027 986.469 652.709 987 648.774C987.149 640.095 987.022 624.883 987.054 617.585C987.192 613.342 985.065 609.893 983.852 605.958C983.054 602.13 980.638 600.533 977.077 600.447C975.452 600.138 973.861 599.606 972.154 599.575H932.75ZM456.64 616.702C440.556 614.958 376.753 616.521 350.998 616.021C344.459 616.021 339.553 615.999 337.211 616.031C335.734 616.138 335.601 616.903 333.061 617.509C328.774 618.827 320.201 617.086 319.466 623.031H319.457C319.34 625.105 319.659 627.51 319.744 629.68C319.828 632.338 319.413 634.978 319.466 637.052C319.308 643.581 322.725 643.689 326.98 644.795C329.492 645.241 335.213 644.465 337.126 644.795C351.773 644.561 440.894 645.391 456.363 644.412C457.321 644.679 458.992 645.849 460.278 645.785C461.775 645.274 461.81 643.262 461.969 640.223C461.969 635.075 462.001 626.988 461.958 622.127C461.799 617.799 461.105 616.49 456.64 616.702ZM223.589 526.707C221.112 526.463 221.079 528.676 220.26 530.898C217.336 539.78 219.293 551.642 218.761 561.534C218.931 564.522 218.568 568.375 217.515 570.63L217.483 570.747L217.453 570.768C215.677 577.182 216.856 584.129 218.494 590.362C219.684 596.745 216.984 607.638 220.302 612.999C223.366 615.094 228.399 616.775 232.132 618.094C234.843 618.677 236.186 617.318 238.588 617.169C255.896 617.126 287.258 617.212 306.543 617.127C309.007 617.663 307.819 611.871 308.095 609.446V572.31C308.637 566.197 303.841 569.106 300.352 568.088C294.524 567.152 288.532 567.811 281.364 567.62C275.738 567.375 271.756 567.79 267.002 569.289C260.76 570.916 254.927 567.96 248.812 567.641C246.448 567.024 226.652 568.445 232.312 564.3C235.957 562.022 241.058 562.801 246.078 562.759C265.308 563.407 305.104 563.704 307.105 562.142C307.72 562.167 308.127 559.608 308.095 558.428C308.138 554.226 308.095 546.875 308.117 540.472C308.095 536.058 308.139 532.961 308.107 529.855C308.064 527.146 307.859 526.772 306.436 526.719C297.467 526.687 235.828 526.718 223.589 526.707ZM453.192 589.234C424.588 588.809 350.492 588.374 335.083 589.416C333.744 590.128 330.829 590.787 328.84 590.682C326.756 590.735 324.339 589.853 322.329 590.234C316.65 591.748 319.018 595.607 317.775 598.404C317.318 599.648 316.819 600.852 316.649 602.16V602.181C316.394 604.286 316.744 607.031 318.499 607.978C349.892 608.308 432.664 607.98 454.226 608.086C455.107 608.074 455.737 607.606 456.576 607.5C457.374 607.352 458.651 607.552 459.841 606.946C465.168 604.147 464.721 590.866 457.884 590.225C456.343 589.969 454.49 589.861 453.192 589.234ZM617.331 555.95C614.8 554.462 612.395 555.917 609.184 555.95C601.44 555.993 584.94 555.929 576.238 555.972C572.251 556.068 571.843 557.153 568.133 557.78C564.283 558.748 559.017 557.26 555.826 559.758L555.75 559.844C554.719 561.62 555.505 564.173 555.229 566.215C554.016 575.533 552.061 585.872 562.814 589.766C580.409 590.446 610.62 589.086 623.566 590.299C630.309 593.648 637.704 591.256 644.82 590.075C652.499 588.694 660.81 593.596 668.181 591.246C670.7 590.523 672.393 589.862 675.263 589.893C682.816 589.936 696.455 589.799 703.837 589.959C706.048 590.119 707.135 590.598 707.731 591.065C708.421 591.639 708.764 592.18 709.656 592.159H872.986C873.952 592.213 874.083 592.639 875.305 593.096C877.646 594.03 881.508 593.309 884.39 592.405C888.238 591.193 888.41 589.988 887.591 585.459C887.262 582.768 887.411 579.235 887.379 576.342C887.124 571.822 888.655 568.234 888.134 564.288C886.985 557.1 879.464 558.193 873.625 558.215C865.105 558.108 853.743 558.417 845.765 558.088C828.042 552.865 675.509 557.386 617.331 555.95ZM972.109 578.3C962.823 578.353 941.748 578.181 930.131 578.362C927.463 578.618 927.162 579.576 923.76 580.087C922.038 580.353 920.228 580.426 918.41 580.415C913.89 580.66 909.058 579.873 905.091 578.863C902.986 578.406 900.399 578.332 898.676 579.756L898.697 579.768C897.475 580.873 897.623 582.459 897.942 584.054C898.304 587.542 900.581 591.225 903.761 592.618C905.409 593.308 906.752 593.193 908.708 593.193H956.089C963.983 593.195 970.551 593.192 973.705 593.171C975.799 592.926 977.513 592.012 979.682 591.97C981.224 591.747 983.032 591.849 983.755 590.341C985.063 587.904 985.88 581.194 982.734 579.331C981.395 578.673 979.585 579 978.246 579.001C976.066 579.107 974.33 578.258 972.109 578.3ZM529.06 554.886C525.072 554.811 522.07 555.748 518.572 556.759C510.785 557.354 494.669 556.842 485.765 557.002C483.692 557.002 482.232 556.8 480.404 556.258C473.458 553.61 470.989 557.609 470.489 564.15L470.5 564.172C470.267 567.054 470.999 569.928 470.542 573.225C470.404 574.373 470.213 575.608 470.181 576.745C470.075 579.627 471.01 582.193 471.33 585.639C471.67 589.563 471.693 593.086 476.638 593.107C481.296 593.352 486.021 593.191 489.903 591.49C500.371 590.384 524.433 591.383 536.624 591.054C539.207 590.863 541.146 591.521 543.273 591.724C546.865 592.05 546.74 587.096 546.75 584.299V564.588C546.474 561.706 547.556 558.141 545.569 555.95C544.601 555.111 542.9 555.459 541.294 555.513C537.157 555.832 533.335 554.769 529.06 554.886ZM454.831 459.2C440.084 459.221 334.146 459.169 322.349 459.232C319.893 460.733 320.85 464.723 319.606 467.808L319.574 467.955L319.583 467.924C318.87 473.767 315.99 494.962 323.838 496.56C332.177 497.24 342.147 497.188 350.369 496.55C355.708 494.87 360.593 494.624 366.454 494.826C369.633 495.028 373.018 494.848 374.549 497.314C375.378 499.111 375.026 500.294 373.092 501.124C360.456 502.677 343.816 501.251 330.328 501.719C327.456 502.069 321.384 500.508 321.095 503.697C320.425 509.122 321.233 515.773 320.606 521.091C318.905 527.26 320.233 532.154 320.818 538.227C323.147 558.395 310.99 567.044 331.402 565.47C336.208 565.405 338.998 563.407 343.805 563.428C350.071 563.417 361.656 563.428 368.676 563.428C372.176 563.364 377.08 563.546 377.974 567.331C378.302 572.541 370.848 569.405 366.794 569.565C357.328 569.576 333.299 569.543 324.957 569.586C322.351 569.384 320.113 577.724 323.516 578.937C327.217 580.382 331.702 578.002 335.531 578.937C346.189 582.01 362.23 579.842 372.569 580.448C375.525 580.575 377.677 579.554 380.368 578.714C387.303 577.821 395.996 578.554 403.345 578.331C408.642 577.959 414.792 578.853 419.344 579.278C429.748 577.428 446.046 578.692 456.119 578.32C461.966 578.101 461.241 568.98 448.32 570.352H420.153C417.323 570.618 412.185 570.926 414.758 567.331C421.417 563.386 432.472 567.267 439.652 564.055C445.331 562.907 452.162 563.727 458.022 563.365C461.157 563.195 461.246 562.362 461.246 559.514C461.246 544.77 461.278 518.483 461.214 504.867C459.51 493.657 417.699 505.333 419.365 495.879C419.695 491.785 423.184 493.655 427.449 493.772H450.799C462.539 494.898 456.492 480.73 457.151 473.486C457.311 468.87 459.231 460.362 454.831 459.2ZM978.958 555.056C962.023 554.641 931.502 555.056 912.557 554.907C909.963 554.907 906.505 554.897 904.271 554.918C902.368 554.961 900.836 555.887 900.389 557.822C899.602 561.397 898.316 568.396 901.677 570.917C903.273 571.733 906.039 570.726 908.016 570.885C909.889 570.856 911.15 571.862 912.912 571.927H982C984.976 572.191 984.491 569.129 984.628 566.726C984.628 562.471 983.274 556.642 978.958 555.056ZM617.342 520.856C609.535 521.09 595.312 520.324 586.472 521.206C583.665 522.12 581.153 523.047 578.112 522.963C573.613 523.016 566.675 522.93 562.441 523.005C560.815 523.069 559.229 523.314 557.868 524.121C556.092 525.142 555.845 527.356 554.91 529.59C554.304 531.216 553.676 532.803 553.368 534.536L553.346 534.558C552.358 537.845 553.517 544.396 555.484 546.205C598.365 546.035 694.817 548.121 718.401 544.547C719.591 544.738 720.741 545.047 721.835 545.493C725.291 547.025 725.539 548.833 728.57 548.515C749.101 548.695 787.279 548.164 806.713 548.706C808.466 549.323 808.928 550.706 811.001 550.621C822.165 550.642 864.147 550.631 882.741 550.631C887.077 550.896 886.975 549.958 887.039 546.227C886.943 540.334 887.633 533.61 885.667 527.931C884.933 526.421 884.908 525.334 883.761 525.1H660.18C658.501 524.727 658.433 523.058 656.319 522.207C651.394 519.74 642.501 521.175 637.852 522.228C635.087 522.771 632.233 521.984 629.468 521.739C625.215 521.633 621.521 521.25 617.342 520.856ZM485.382 521.899C482.011 521.899 477.489 521.888 474.564 521.909C472.458 521.952 470.82 522.943 470.373 525.069L470.383 525.08C468.757 530.59 469.874 538.27 471.076 543.195C471.895 548.332 475.172 550.291 480.203 549.323C483.541 549.046 485.097 547.344 488.415 547.322C502.414 547.322 529.156 547.312 538.836 547.322C539.761 547.323 540.688 547.515 541.336 548.057C542.452 548.982 543.242 550.321 544.529 549.035C546.761 545.78 546.421 538.875 547.388 534.769C547.782 532.26 548.557 529.983 548.09 528.079C546.952 524.091 542.856 522.304 539.144 521.899H485.382ZM1004.37 487.444C1002.79 487.274 999.767 488.253 998.511 490.348C996.852 492.56 996.873 497.677 996.948 501.283C996.927 506.484 997.297 513.071 995.66 517.538L995.669 517.526C994.361 522.441 994.746 528.581 995.639 533.643C995.735 540.122 996.566 549.651 1005.22 549.12C1011.59 548.961 1020.31 549.547 1026.59 548.792C1029.58 548.132 1031.26 546.993 1034.65 546.993C1042.21 546.706 1052.09 547.471 1059.53 546.567C1063.82 545.24 1067.4 548.546 1071.6 548.249C1078.12 547.396 1075.54 539.408 1074.61 535.334C1074.1 529.282 1074.53 521.972 1074.4 515.58C1074.52 511.251 1073.99 505.399 1075.2 501.644C1075.87 497.847 1079.06 492.325 1077.19 488.315C1076.74 487.678 1075.95 487.339 1075.19 487.455C1073.76 487.763 1072.36 488.421 1070.79 488.369H1009.29C1007.38 488.443 1006.13 487.658 1004.37 487.444ZM946.428 393.12C942.238 392.726 938.864 390.908 934.43 391.099C929.038 391.237 925.056 392.959 920.015 392.332C918.133 391.939 916.716 392.045 914.717 392.46C910.463 393.417 903.251 392.365 899.156 394.289L899.08 394.343V394.364C897.592 395.885 898.229 397.376 897.443 398.971C897.687 419.155 896.4 525.674 898.676 545.685C900.634 550.596 905.379 547.844 910.962 548.546H957.375C962.607 547.631 966.493 545.823 972.577 546.429C977.139 545.984 981.311 548.926 984.097 545.577C985.575 534.63 984.256 505.369 984.618 490.731C984.925 487.468 976.004 489.464 973.437 488.944C958.907 489.157 936.335 488.413 924.335 489.392C918.166 486.647 925.271 482.358 929.686 481.805C941.503 481.283 954.728 480.573 965.79 483.359C971.555 483.433 982.03 480.867 982.49 473.754C982.575 467.425 982.501 459.625 982.522 453.03C983.33 445.405 980.393 442.053 972.747 442.127C962.259 441.776 949.842 442.489 939.556 442.574C936.196 441.947 930.548 442.466 927.877 440.691C924.123 436.224 930.854 435.234 934.822 435.733H971.426C977.095 435.967 983.265 436.241 981.012 428.543C979.693 421.012 980.693 409.64 980.395 400.652C980.236 393.846 981.466 392.95 974.31 393.173C966.737 393.152 953.736 393.237 946.428 393.12ZM569.227 442.127C562.505 442.839 554.581 439.395 553.421 447.34L553.431 447.35C553.803 453.816 552.794 460.381 553.474 466.773C555.463 475.453 554.219 484.678 554.538 494.921C555.569 502.132 551.507 507.464 554.474 513.921C576.46 517.409 849.307 512.688 877.476 514.485C887.567 520.394 884.338 502.902 886.124 497.678C886.655 491.467 878.837 489.263 873.88 488.954C863.498 488.773 839.893 489.23 828.084 488.772C820.363 485.912 812.925 487.347 804.682 488.772C775.035 485.443 705.167 487.304 658.255 486.698C656.309 485.635 654.817 484.488 652.276 484.689C641.894 484.668 611.05 484.709 601.292 484.667C598.569 484.741 595.94 483.527 596.078 480.4C596.228 477.041 599.855 476.912 602.439 477.093C610.054 476.114 618.311 476.041 626.363 476.18C635.521 476.817 648.49 474.774 656.521 477.21C675.147 481.293 809.635 475.242 827.861 479.496C833.765 481.558 844.18 479.945 851.423 480.435C865.953 479.425 875.359 483.56 885.56 475.944C888.41 471.349 886.592 461.53 887.049 455.467C887.092 446.799 884.504 445.871 876.624 446.382C857.934 445.457 825.99 448.348 806.523 445.094C798.375 442.669 787.46 447.965 779.163 445.839C758.101 441.414 727.155 446.423 706.103 443.595C702.53 442.149 698.942 444.019 695.209 444.243C682.232 444.296 660.34 444.243 646.49 444.254C641.396 444.658 638.234 442.33 633.034 442.223C622.759 442.074 613.502 444.509 603.61 442.159C596.951 442.085 579.227 442.148 569.227 442.127ZM481.212 459.158C478.448 459.169 474.255 459.127 472.35 459.19C470.426 459.403 469.277 460 468.543 461.265H468.532C467.022 464.636 467.852 468.276 467.65 473.009V497.356C467.682 502.355 467.587 506.623 467.704 509.08C467.874 510.973 468.321 512.208 468.991 512.984C469.863 513.962 471.258 514.356 472.671 514.452C484.026 514.123 524.455 515.207 537.007 514.048C539.315 513.303 542.145 511.953 544.368 510.848C547.376 508.975 546.071 504.251 546.368 500.9V467.722C546.314 464.84 545.122 461.084 543.283 459.711C542.869 459.414 542.442 459.243 541.901 459.2C537.465 459.115 521.976 459.179 513.913 459.158H481.212ZM1003.14 425.129C998.757 425.554 992.682 423.481 991.862 428.458H991.874C991.194 435.094 997.236 435.883 1002.82 435.766H1017.99C1022.09 435.978 1027.76 434.864 1028.13 439.787C1028.5 443.55 1024.78 444.232 1021.8 444.243C1015.68 444.318 1003.51 444.245 997.798 444.287C996.459 444.351 994.936 444.246 993.979 445.17C992.193 448.01 993.341 454.723 992.98 458.477C992.852 463.933 991.5 466.201 991.181 470.699C991.182 477.836 1000.99 479.242 1005.84 479.603C1008.91 479.509 1011.11 480.975 1014.06 480.976C1025.05 480.954 1057.04 481.018 1073.11 480.954C1076.65 480.676 1075.51 476.325 1074.63 471.901C1074.29 469.923 1074.15 467.879 1074.15 465.827C1074.15 459.892 1073.85 454.762 1075.49 449.349C1076.59 444.637 1076.75 437.753 1074.65 433.403C1073.41 430.671 1072.49 428.382 1071.19 425.936C1070.78 425.395 1070.2 425.202 1069.52 425.159C1062.32 425.095 1040.28 425.161 1029.04 425.129H1003.14ZM476.053 386.823C473.522 386.781 469.746 386.6 468.564 388.938H468.543C467.098 392.055 467.809 395.578 467.65 399.917V433.629C467.353 437.308 468.586 439.947 469.277 443.223C469.947 447.19 470.3 452.254 475.277 452.18C479.116 452.286 483.906 452.402 487.426 451.519C489.658 450.903 491.489 450.233 493.881 450.169C501.2 450.233 511.338 449.723 518.39 450.457C521.122 451.021 522.168 451.734 525.954 452.074C530.347 452.616 536.965 451.775 540.379 450.584C543.228 449.53 544.324 446.359 544.24 442.744C544.452 435.256 543.71 423.767 544.858 416.768C544.571 408.449 548.42 398.044 545.145 389.545C544.348 388.121 542.41 388.279 540.878 387.992C538.636 387.885 536.92 387.004 534.709 386.833C524.805 386.812 493.159 386.813 476.053 386.823ZM453.15 386.864C440.575 386.79 367.88 386.854 338.445 386.833C335.765 386.791 334.9 388.311 331.36 388.291C329.691 388.429 327.563 387.803 326.095 388.524L326.019 388.577H326.042C325.223 389.162 325.03 390.685 324.871 393.247C324.764 396.001 324.807 399.577 324.829 402.416C324.882 408.212 325.68 412.597 332.572 411.215C334.964 410.704 336.999 410.226 339.583 410.236C349.029 410.598 363.901 409.416 372.539 410.831C375.003 411.735 373.963 412.993 372.539 415.204C367.869 415.736 364.409 416.193 360.421 416.268C354.359 416.044 351.346 416.703 344.998 417.33C341.445 417.192 340.208 417.864 334.359 419.459C325.318 419.459 324.584 422.395 324.807 429.596C324.945 434.236 323.883 450.691 329.286 451.191C344.356 451.181 431.397 451.213 452.81 451.191C455.477 451.084 455.363 448.923 456.788 446.266C458.734 442.373 459.468 435.053 458.118 430.947C456.576 422.693 457.682 413.427 457.363 404.907C457.012 399.153 459.788 396.256 458.225 391.194C457.449 388.78 455.468 387.035 453.15 386.864ZM294.576 386.823C287.673 386.855 280.511 386.333 273.917 388.215C269.599 388.906 265.352 386.886 260.641 386.875C255.302 386.747 252.575 388.566 246.737 388.886C241.653 389.215 235.111 388.408 230.377 389.344L230.303 389.375V389.407C229.389 389.854 229.409 390.865 229.377 391.853C229.367 400.802 229.367 437.817 229.377 445.988C229.367 448.167 229.676 448.616 232.143 448.52C249.43 448.34 287.607 448.894 300.138 448.309C302.18 447.575 303.958 447.372 306.254 447.616C316.368 448.285 314.265 439.669 314.466 431.713C314.339 418.597 314.744 401.32 314.308 389.098C313.595 386.154 310.372 388.192 308.297 388.215C302.874 388.948 300.445 386.696 294.576 386.823ZM327.924 150.613C316.043 148.199 304.765 148.389 292.809 148.527C286.258 147.943 283.574 151.528 278.778 154.495C274.758 156.431 270.321 157.666 266.439 160.143C260.451 165.058 259.055 173.219 253.865 178.856C243.249 193.674 230.132 205.94 218.761 220.065C215.102 224.086 210.335 225.769 205.857 228.428C200.996 232.661 195.708 236.108 189.188 237.47C159.265 247.682 165.465 270.372 166.072 296.094C166.571 306.337 164.636 317.136 165.306 327.433C165.583 335.814 168.359 342.688 167.2 350.91C165.934 357.951 165.423 365.016 164.828 372.174C162.52 381.811 162.585 394.099 165.946 403.502C165.902 408.894 160.552 411.172 161.051 416.947C166.248 428.234 182.453 432.79 189.682 437.586L189.688 437.542C189.829 437.622 197.185 441.798 202.453 441.798C209.18 441.797 214.52 439.865 215.169 439.683C216.244 438.579 216.844 436.869 216.474 433.925C218.59 429.065 218.1 425.573 218.132 419.469C217.845 404.481 219.377 390.843 216.527 378.195C215.07 371.984 217.909 364.27 217.187 358.346C214.358 345.421 216.782 325.975 216.005 312.093C216.027 296.68 227.877 284.754 237.759 274.17C243.014 268.362 247.196 260.979 252.344 255.022C259.439 248.651 263.887 239.927 269.088 232.003C286.715 193.752 332.296 207.534 365.166 205.024C367.313 204.875 368.741 204.439 370.315 203.333C405.015 202.386 460.183 203.185 497.372 202.93C501.476 202.271 504.245 204.333 508.796 204.727C519.263 205.833 530.201 207.663 541.125 207.429C552.484 209.258 564.177 211.684 575.43 213.268C582.951 213.97 593.291 213.269 600.928 213.748C606.447 213.866 608.611 216.354 613.982 215.716C624.991 215.652 640.245 216.344 650.169 215.004C662.03 214.227 674.245 211.769 686.466 211.099C696.826 209.865 707.445 207.663 718.028 207.557C722.973 208.397 726.465 209.483 731.708 209.323H767.535C781.575 210.536 793.386 214.173 807.692 213.599C818.116 214.088 827.821 217.27 838.16 215.227C840.722 214.792 842.838 209.362 842.838 200.855L843.903 186.495C843.566 184.673 843.372 182.534 843.372 180.112C843.372 165.753 841.765 154.613 838.989 154.9C791.514 154.698 723.633 155.91 679.019 153.847C665.415 151.124 651.031 147.891 636.98 149.476C630.662 151.188 620.82 150.103 613.842 151.368C608.738 152.187 604.98 154.994 599.663 154.729C585.75 156.527 573.674 150.167 559.729 150.305C549.358 147.837 539.867 149.56 529.39 150.857C519.519 152.4 508.902 152.922 498.872 154.518C487.586 155.283 477.403 150.879 466 150.655C451.194 151.963 430.216 148.285 417.249 152.666C401.921 152.538 372.158 153.017 359.752 152.762C349.594 150.081 338.614 150.656 327.924 150.613ZM671.977 388.96C640.64 389.673 566.3 387.547 552.974 389.727L552.953 389.789H552.962C552.665 397.458 552.452 408.205 553.058 416.076C553.537 419.34 554.313 421.289 553.941 424.489C553.473 430.924 554.55 436.499 562.165 435.766C571.387 435.797 587.472 435.713 595.397 435.798C598.917 436.011 602.548 437.989 605.866 436.521C612.162 434.863 617.28 436.148 624.938 435.766C641.085 435.819 660.892 435.67 669.253 435.829C677.188 438.977 686.775 438.105 694.805 436.127C698.794 435.479 703.849 435.842 707.135 437.862C733.787 437.894 843.743 437.905 883.176 437.884C886.333 437.371 886.688 431.139 886.762 428.384C886.773 421.034 886.762 405.12 886.762 398.077C887.686 391.325 877.231 392.396 872.634 393.013C865.54 393.364 857.189 393.311 850.211 393.056C830.51 386.961 693.589 395.277 671.977 388.96ZM1054.5 393.183C1046.4 393.385 1037.32 392.748 1029.44 393.492C1026.37 394.364 1022.76 395.437 1019.3 395.268C1015.35 395.172 1012.11 394.131 1008.86 393.609C1005.65 393.088 1002.42 394.183 999.127 394.736C996.894 395.246 994.234 395.153 992.447 396.736L992.435 396.768C990.171 399.364 991.224 403.471 991.692 406.587C992.649 411.256 993.183 416.585 997.575 416.586C1003.45 416.66 1016.5 416.555 1022.53 416.64C1024.77 416.651 1026.47 417.353 1028.43 418.161C1031.19 418.99 1033.95 418.672 1037.53 418.735C1044.46 418.672 1052.19 418.873 1057.52 418.639C1059 418.542 1060.44 418.076 1061.83 417.831C1063.94 417.513 1066.23 417.798 1068.38 417.554C1072.96 416.974 1072 404.652 1071.57 401.289C1071 397.621 1068.72 396.683 1065.74 395.768C1061.42 394.003 1059.7 393.119 1054.5 393.183ZM162.23 155.643C151.331 161.288 146.595 176.868 138.903 186.451C125.659 198.035 105.736 205.59 106.32 226.406C105.569 232.94 106.028 239.03 106.758 245.197C109.837 244.781 112.969 244.303 116.136 243.759L117.152 249.672C113.898 250.231 110.677 250.721 107.51 251.149C107.681 252.471 107.852 253.803 108.011 255.15C107.395 290.498 116.405 323.667 123.936 357.547C126.999 371.056 128.5 384.695 134.361 397.406C150.248 422.401 150.702 413.98 149.71 400.553L148.701 401.9C145.854 399.765 141.651 395.982 138.129 391.438C134.672 386.979 131.5 381.315 131.5 375.5C131.5 369.705 128.776 338.272 125.207 306.27C123.427 290.319 121.448 274.314 119.51 261.406C118.541 254.95 117.588 249.298 116.679 244.827C115.751 240.261 114.922 237.196 114.263 235.727C110.695 227.768 110.934 220.275 114.802 214.358C118.602 208.547 125.508 204.869 134.038 203.536C135.281 203.342 137.052 202.499 139.245 200.716C141.388 198.972 143.712 196.51 146.052 193.457C150.731 187.353 155.286 179.134 158.473 170.253C160.216 165.397 161.514 160.464 162.23 155.643ZM1049.9 291.18C1045.21 285.223 1041.58 277.245 1038.67 289.87L1038.68 289.881C1038.14 291.678 1037.82 293.393 1037.83 295.381V326.006C1037.76 328.494 1038.4 330.464 1039.44 332.538C1040.73 343.123 1039.56 368.695 1039.95 379.322C1039.98 384.554 1042.23 385.704 1048.35 385.789C1055.28 386.033 1063.23 385.247 1070.08 386.278C1072.68 386.683 1075.56 388.384 1077.11 386.141C1078.53 383.865 1078.15 381.14 1078.24 378.439C1078.24 374.611 1078.09 370.164 1079.2 366.835C1080 364.761 1080.41 362.748 1080.37 360.43C1080.37 352.675 1080.4 336.612 1080.35 329.634C1080.07 322.54 1075.14 316.72 1069.34 312.901C1066.51 310.583 1064.24 307.805 1062.05 305.029C1057.82 300.615 1053.28 296.38 1049.9 291.18ZM999.042 232.916C998.008 226.185 976.738 230.479 970.491 229.321C964.352 230.437 946.579 225.813 946.642 234.353C945.898 241.959 946.706 251.714 946.227 259.096C939.931 278.188 965.119 272.127 976.097 274.584C982.859 275.532 984.167 280.998 976.863 282.126C965.588 283.094 943.791 282.404 930.441 282.446C922.687 279.776 914.323 280.18 906.186 282.201C898.89 283.552 892.218 280.563 884.879 280.424C879.732 280.286 875.995 281.871 871.039 282.371C865.944 283.03 858.518 282.063 853.795 281.733L853.742 281.764V281.786C851.275 288.934 853.391 301.668 852.753 309.082C852.51 314.696 856.243 313.412 860.072 314.209C874.056 315.06 948.514 314.093 963.737 314.571C967.391 315.02 965.746 319.878 964.247 321.921C948.481 325.569 870.503 321.125 853.083 323.39C852.041 333.253 853.105 368.237 852.744 379.259C852.468 381.842 853.86 382.822 856.487 382.589C888.133 383.057 921.463 382.45 957.757 382.62C967.712 385.917 972.939 384.003 983.054 382.663C989.404 381.75 996.925 385.161 1002.1 381.834C1005.91 375.941 1002.87 362.473 1003.8 355.228C1004.64 339.147 985.15 345.823 975.289 344.027C969.801 344.345 969.045 335.517 974.076 334.867C1001.83 337.526 1007.29 337.44 1001.67 307.784C1000.85 295.296 1003.63 278.105 999.905 267.563C998.671 257.288 1000.5 242.309 999.042 232.916ZM1026.15 256.798C1023.65 252.49 1017.18 244.579 1011.78 245.001L1011.69 245.043V245.021C1009.35 247.617 1010.45 251.235 1010.17 255.447C1010.12 258.213 1010.29 262.521 1011.27 264.744C1011.8 265.987 1012.18 266.682 1012.27 268.159C1012.45 278.682 1012.06 318.029 1012.41 329.454C1013.24 332.462 1014.43 333.178 1014.4 337.059C1014.46 342.899 1014.4 354.175 1014.44 360.26C1014.44 362.472 1014.84 364.431 1015.46 366.483C1017.02 370.919 1015.96 376.941 1018.87 380.876C1020.8 382.907 1029.51 384.989 1029.31 380.408C1029.15 369.972 1029.69 333.368 1029.1 316.22C1028.35 313.965 1027.61 311.963 1027.42 309.422C1027.18 305.253 1028.49 301.082 1027.42 297.104C1026.83 288.159 1027.36 277.509 1027.19 268.224C1026.99 264.554 1027.86 259.808 1026.15 256.798ZM514.998 260.149V260.138C514.253 260.467 513.71 261.33 513.657 262.202C513.593 290.668 513.647 360.895 513.636 374.642C513.499 378.022 517.051 377.886 519.38 378.62C521.242 379.12 524.094 379.44 526.433 379.302C545.657 378.728 594.811 380.418 608.683 378.631C611.416 377.931 614.621 380.439 617.13 381.003C618.235 381.278 619.521 380.64 619.491 379.397C619.533 361.91 619.492 333.325 619.513 313.423C619.896 297.786 618.725 274.956 620.001 264.69C620.17 262.745 617.172 260.247 614.769 260.33C586.814 260.224 543.667 260.49 515.062 260.118L514.998 260.149ZM467.054 214.674C466.087 214.684 465.395 215.004 465.309 215.854C465.384 251.364 465.203 358.565 465.288 372.174C468.81 381.778 490.212 377.727 498.648 378.376C502.762 378.205 505.859 377.002 505.744 373.973C506.648 344.847 503.914 280.342 506.796 254.661C517.85 247.365 542.869 251.734 564.186 250.564C575.227 250.926 583.091 249.267 592.398 252.501C600.334 253.001 613.386 252.501 621.895 252.746C624.99 252.895 629.118 253.417 629.247 256.873C629.374 272.387 629.256 354.769 629.298 369.451C629.236 374.204 635.183 376.11 638.789 377.387C652.022 379.896 673.584 377.95 685.178 378.407C689.228 378.278 688.211 374.268 688.051 371.481C689.87 359.004 687.647 343.153 689.965 330.836C691.327 322.934 697.465 323.104 698.04 331.039C696.88 341.187 697.657 356.612 697.455 367.6C697.455 370.365 697.668 373.567 699.837 375.375C704.316 378.511 710.731 375.654 716.006 376.451C723.292 377.355 729.752 379.142 737.303 378.493C744.621 379.014 753.633 377.1 760.057 380.099C775.612 381.545 818.097 380.205 840.457 380.588C842.591 380.459 842.18 379.447 842.307 375.217C842.392 363.824 842.127 345.368 842.415 335.198C842.521 331.635 845.549 327.219 842.892 324.113C833.819 321.093 817.553 324.612 808 322.496C805.491 322.017 802.683 318.581 803.331 316.443C807.384 312.647 815.853 315.38 821.224 314.455C841.528 311.445 844.987 314.302 842.477 291.03C842.01 285.743 846.069 267.696 840.648 266C832.5 264.841 820.659 265.797 811.916 265.499C805.076 264.893 797.364 267.816 795.034 260.308C793.471 256.511 797.087 254.596 800.491 254.861C808.79 254.787 829.32 254.883 837.447 254.819C843.516 254.828 840.755 250.425 841.52 246.075C841.606 241.086 844.973 231.163 838.381 229.523C833.34 228.907 827.253 229.725 822.233 228.449C815.628 226.482 808.202 227.301 801.268 227.131C796.004 227.301 793.51 225.673 788.194 225.162C784.216 224.801 777.163 225.205 773.078 224.865C763.899 223.674 756.227 221.907 746.857 220.748C739.188 220.737 723.454 220.748 715.125 220.748C710.371 220.429 708.58 222.194 703.912 222.801C695.179 223.024 678.338 222.801 668.786 222.896C656.83 224.407 646.818 227.556 634.32 227.142C626.726 226.45 620.511 229.682 612.885 228.971C605.929 227.322 597.491 227.427 590.163 226.321C582.675 224.131 574.258 225.406 566.398 224.875C560.187 223.981 555.59 222.45 549.145 222.875C541.583 223.194 534.634 221.141 527.242 220.045C522.296 218.747 515.242 218.715 509.679 218.236C505.521 217.694 504.528 216.716 499.797 216.514C490.309 216.322 476.074 217.258 467.117 214.685H467.033L467.054 214.674ZM441.236 216.184C436.961 215.003 435.097 214.195 430.971 214.503C418.409 214.545 401.25 214.471 387.921 214.503C382.784 213.918 378.846 217.44 375.846 221.599C375.845 233.298 366.826 240.524 364.145 249.171C359.125 256.595 358.593 259.682 362.815 267.627C363.74 274.168 361.475 280.16 359.752 286.488C357.826 289.307 349.052 294.603 345.88 295.53C333.741 295.562 254.754 295.327 241.663 295.349C237.419 296.519 232.684 299.903 229.844 303.359L229.792 303.443H229.802C227.675 316.624 228.952 361.95 229.282 374.897C231.487 378.522 241.07 378.429 245.728 378.269C250.173 378.332 253.419 376.29 257.715 376.216C263.449 376.173 274.481 376.205 280.576 376.205C284.255 376.131 286.555 377.377 289.937 377.94C295.563 379.003 302.075 377.643 307.776 376.505C310.562 376.08 313.628 376.238 316.372 376.854C320.188 378.162 319.671 378.525 323.211 378.323C359.454 378.281 420.844 378.397 453.767 378.28C455.532 377.907 457.044 376.428 457.375 374.706C458.108 339.209 455.736 239.305 458.619 225.099C459.309 215.835 447.746 216.8 441.236 216.184ZM1042.3 264.681C1042.07 264.426 1040.99 264.691 1040.17 264.681C1039.19 264.734 1038.51 265.299 1038.02 265.692L1037.94 265.798H1037.95C1037.69 266.468 1037.79 267.691 1038.55 268.085C1039.6 268.62 1041.23 271.597 1043.36 273.723C1044.99 275.552 1052.25 281.538 1059.85 289.147C1068.36 302.975 1074.21 308.295 1079.53 307.764C1081.65 306.699 1085.37 304.036 1074.21 293.402C1065.7 281.17 1055.08 275.03 1042.3 264.681ZM310.33 218.747C304.107 218.013 301.509 221.982 296.51 224.492C291.299 227.077 286.649 231.056 283.213 235.629C280.576 238.33 277.82 241.056 275.554 244.246C272.193 248.085 268.352 251.437 265.225 255.468C259.971 259.786 257.034 266.266 252.578 271.287C251.014 272.967 249.312 274.766 248.716 277.031L248.707 277.052C247.569 279.987 249.568 283.594 252.365 284.317C275.758 285.211 328.263 284.796 343.805 284.467C349.25 283.158 353.198 279.039 353.549 273.19C353.762 268.118 353.379 265.604 353.549 260.67C353.847 257.937 352.945 256.233 353.263 253.511C353.498 250.543 355.093 245.789 355.53 242.821C355.956 238.014 362.123 233.331 362.815 228.513C363.806 221.601 355.574 221.416 353.263 219.63C351.907 218.8 349.855 218.742 347.847 218.747H310.33ZM886.836 227.31C880.306 227.225 872.284 227.3 865.53 227.279C861.032 227.226 859.805 227.886 856.775 228.768C854.254 229.513 852.159 230.556 852.424 233.576C852.403 239.246 852.424 251.725 852.424 258.916C852.562 262.436 852.391 266.245 851.19 268.798L851.158 268.893C849.925 271.871 853.456 272.042 855.636 271.946C866.72 271.946 879.253 271.967 890.496 271.946C893.152 271.914 893.431 271.582 893.463 268.883C893.495 258.416 893.463 246.202 893.463 235.948C893.559 230.801 893.429 227.418 886.836 227.31ZM917.131 225.141C911.493 225.332 900.912 224.047 900.347 230.938C900.262 239.087 900.336 252.012 900.304 260.841C900.325 263.817 899.401 264.766 899.591 266.477V266.468C900.028 269.86 903.932 272.073 907.346 271.925C911.143 271.957 916.526 271.936 920.801 271.946H929.493C932.258 271.999 936.089 272.104 937.355 269.488C938.641 266.469 937.121 264.095 937.078 260.99C937.024 253.779 937.077 245.362 937.056 237.991C937.269 233.206 936.034 230.406 933.131 227.131C931.302 225.217 929.491 225.353 925.951 225.141C923.345 225.13 919.95 225.141 917.131 225.141Z" fill="url(#waterFlow)"/>
<path d="M-13.6968 396.889C-7.35868 399.451 -1.65518 404.617 3.56299 410.737C8.80891 416.89 13.7957 424.291 18.603 431.63C23.4512 439.031 28.104 446.346 32.8022 452.591C37.5253 458.869 42.0612 463.738 46.5435 466.428C50.0757 468.547 55.8964 470.357 63.3286 471.817C70.6789 473.261 79.3088 474.309 88.2476 475.048C106.122 476.525 125.016 476.749 136.938 476.501L137.062 482.5C124.984 482.752 105.878 482.525 87.7524 481.027C78.6915 480.278 69.8209 479.208 62.1714 477.705C54.6038 476.218 47.9243 474.254 43.4565 471.573C37.939 468.263 32.8323 462.612 28.0073 456.198C23.1575 449.752 18.356 442.203 13.5835 434.918C8.77011 427.57 3.9693 420.461 -1.00244 414.63C-6.00181 408.766 -10.9459 404.473 -15.9468 402.451L-13.6968 396.889Z" fill="url(#waterFlow)"/>
</g>
<defs>
<clipPath id="clip0_9590_4086">
<rect width="1320" height="1838" fill="white"/>
</clipPath>
</defs>
</svg>
